<svg xmlns="http://www.w3.org/2000/svg" viewBox="1362 997 62 62"><defs><style>.a{fill:#f7f7f7;}.b{fill:#33363a;}.c{fill:#fff800;}.d{fill:#ffd400;}.e{fill:#ffb000;}.f{fill:#fff4c7;}.g{fill:#e0d5a4;}</style></defs><g transform="translate(1338 248)"><circle class="a" cx="31" cy="31" r="31" transform="translate(24 749)"/><g transform="translate(37.626 758.538)"><g transform="translate(11.886)"><g transform="translate(4.366)"><path class="b" d="M61.244,7.95a1.022,1.022,0,0,1-1.022-1.022V1.022a1.022,1.022,0,1,1,2.044,0V6.928A1.022,1.022,0,0,1,61.244,7.95Z" transform="translate(-60.222)"/></g><g transform="translate(0 2.005)"><path class="b" d="M51.71,12.839a1.021,1.021,0,0,1-.851-.454L47.577,7.474a1.022,1.022,0,0,1,1.7-1.136l3.283,4.911a1.022,1.022,0,0,1-.849,1.59Z" transform="translate(-47.405 -5.884)"/><g transform="translate(5.45 0)"><path class="b" d="M64.423,12.839a1.022,1.022,0,0,1-.849-1.59l3.283-4.911a1.022,1.022,0,1,1,1.7,1.136l-3.283,4.911A1.021,1.021,0,0,1,64.423,12.839Z" transform="translate(-63.402 -5.884)"/></g></g></g><g transform="translate(0.511 8.193)"><path class="c" d="M47.54,39.537c0,7.043-7.505,12.755-16.764,12.755S14.013,46.58,14.013,39.537s7.505-15.486,16.763-15.486S47.54,32.492,47.54,39.537Z" transform="translate(-14.013 -24.051)"/></g><g transform="translate(0.511 11.781)"><path class="d" d="M47.54,46.481c0,7.043-7.505,12.755-16.764,12.755S14.013,53.524,14.013,46.481s7.505-11.9,16.763-11.9S47.54,39.436,47.54,46.481Z" transform="translate(-14.013 -34.582)"/></g><g transform="translate(13.705 18.168)"><path class="c" d="M59.883,55.047c0,.475-1.6.56-3.57.56s-3.57-.085-3.57-.56,1.6-1.715,3.57-1.715S59.883,54.573,59.883,55.047Z" transform="translate(-52.743 -53.332)"/></g><g transform="translate(0.511 21.62)"><path class="e" d="M47.54,65.524c0,7.043-7.505,12.755-16.764,12.755S14.013,72.567,14.013,65.524s2.133,6.248,16.763,6.248S47.54,58.479,47.54,65.524Z" transform="translate(-14.013 -63.465)"/></g><g transform="translate(0 7.682)"><path class="b" d="M29.787,51.814c-9.525,0-17.274-5.951-17.274-13.266,0-7.246,7.705-16,17.274-16s17.274,8.751,17.274,16C47.062,45.863,39.313,51.814,29.787,51.814Zm0-28.241c-9,0-16.253,8.192-16.253,14.975,0,6.751,7.291,12.244,16.253,12.244S46.04,45.3,46.04,38.548C46.04,31.765,38.79,23.573,29.787,23.573Z" transform="translate(-12.513 -22.551)"/></g><g transform="translate(5.772 18.346)"><path class="b" d="M35.454,56.227a.511.511,0,0,1-.511-.511c0-.3-.847-.841-2.232-.841s-2.232.545-2.232.841a.511.511,0,0,1-1.022,0c0-1.062,1.4-1.863,3.254-1.863s3.254.8,3.254,1.863A.511.511,0,0,1,35.454,56.227Z" transform="translate(-29.457 -53.853)"/><g transform="translate(16.497)"><path class="b" d="M83.88,56.227a.511.511,0,0,1-.511-.511c0-.3-.847-.841-2.232-.841s-2.232.545-2.232.841a.511.511,0,1,1-1.022,0c0-1.062,1.4-1.863,3.254-1.863s3.254.8,3.254,1.863A.511.511,0,0,1,83.88,56.227Z" transform="translate(-77.883 -53.853)"/></g></g><g transform="translate(3.847 19.456)"><path class="f" d="M50.66,72.322c0-4.325-3.942-5.733-6.873-8.078-4.9-4.218-3.292-6.906-6.35-7.116v-.015c-.071,0-.137,0-.2,0s-.133,0-.2,0v.015c-3.058.21-1.447,2.9-6.35,7.116-2.931,2.345-6.873,3.753-6.873,8.078,0,6.986,6.922,7.6,13.223,7.885v.014c.067,0,.136-.005.2-.007s.136.007.2.007v-.014C43.738,79.917,50.66,79.307,50.66,72.322Z" transform="translate(-23.806 -57.113)"/></g><g transform="translate(4.046 21.296)"><path class="g" d="M50.847,75.935c-.834-3.988-4.133-4.259-6.674-6.292-4.9-4.218-3.292-6.906-6.35-7.116v-.015c-.071,0-.137,0-.2.005s-.133-.005-.2-.005v.015c-3.058.21-1.447,2.9-6.35,7.116-2.541,2.033-5.84,2.3-6.674,6.292,1.17,5.208,7.347,5.731,13.024,5.992v.014c.067,0,.136-.005.2-.007s.136.007.2.007v-.014C43.5,81.666,49.676,81.143,50.847,75.935Z" transform="translate(-24.391 -62.513)"/></g><g transform="translate(3.337 18.944)"><path class="b" d="M36.449,79.74c-.046,0-.092,0-.139,0l-.075,0-.055,0a.881.881,0,0,1-.281-.016c-5.46-.25-13.592-.679-13.592-8.389,0-3.624,2.553-5.349,5.022-7.017.688-.465,1.4-.945,2.042-1.46A13.36,13.36,0,0,0,33.084,58c.593-1.227,1.064-2.2,2.8-2.362a.964.964,0,0,1,.335-.022h.047a1.009,1.009,0,0,1,.342.022c1.733.162,2.2,1.136,2.8,2.361a13.386,13.386,0,0,0,3.726,4.867c.629.5,1.34.983,2.028,1.448,2.469,1.668,5.022,3.394,5.022,7.017,0,7.713-8.137,8.139-13.6,8.39A.479.479,0,0,1,36.449,79.74Zm-.214-1.028.111,0a.469.469,0,0,1,.079-.01c6.968-.32,12.736-1.095,12.736-7.374,0-3.081-2.221-4.581-4.573-6.17-.7-.476-1.433-.969-2.109-1.509a14.5,14.5,0,0,1-3.993-5.209c-.585-1.21-.827-1.711-2.072-1.8a.539.539,0,0,1-.078-.011h-.183a.474.474,0,0,1-.077.011c-1.245.085-1.487.587-2.072,1.8a14.472,14.472,0,0,1-3.98,5.2c-.69.552-1.418,1.044-2.123,1.521-2.352,1.589-4.573,3.089-4.573,6.17,0,6.279,5.768,7.055,12.736,7.374a.524.524,0,0,1,.081.01Z" transform="translate(-22.308 -55.611)"/></g><g transform="translate(14.976 24.104)"><path class="b" d="M57.36,72.615a.511.511,0,0,1-.467-.3l-.375-.837a.511.511,0,0,1,.933-.418l.375.837a.511.511,0,0,1-.466.72Z" transform="translate(-56.473 -70.756)"/><g transform="translate(3.2 0)"><path class="b" d="M66.377,72.615a.511.511,0,0,1-.466-.72l.375-.837a.511.511,0,0,1,.933.418l-.375.837A.511.511,0,0,1,66.377,72.615Z" transform="translate(-65.866 -70.756)"/></g></g></g></g></svg>