<svg xmlns="http://www.w3.org/2000/svg" viewBox="1368 1184 50 49.337"><defs><style>.a{fill:#9a74ce;}.b{fill:#fff;}</style></defs><g transform="translate(1368 1184)"><path class="a" d="M77.655,64.528a5.028,5.028,0,1,0-5.028,5.028A5.046,5.046,0,0,0,77.655,64.528Z" transform="translate(-30.252 -26.627)"/><path class="a" d="M9.728,59.4a5.028,5.028,0,1,0,5.028,5.028A5.046,5.046,0,0,0,9.728,59.4Z" transform="translate(-2.103 -26.582)"/><path class="a" d="M40.528,14.855A5.028,5.028,0,1,0,35.5,9.828,5.046,5.046,0,0,0,40.528,14.855Z" transform="translate(-15.887 -2.148)"/><path class="b" d="M18.188,11.657a9.77,9.77,0,0,1,2.265-1.16A7.682,7.682,0,0,0,27.525,15.3,7.6,7.6,0,0,0,35.149,7.68a7.465,7.465,0,1,0-14.917.166h0a9.161,9.161,0,0,0-3.2,1.6A21.5,21.5,0,0,0,6.7,25.856a1.09,1.09,0,0,0,1.05,1.215h0a1.549,1.549,0,0,0,1.547-1.326A18.731,18.731,0,0,1,18.188,11.657ZM27.635,2.6a5.045,5.045,0,0,1,1.215,9.945,5.085,5.085,0,0,1-6.243-4.917A5.011,5.011,0,0,1,27.635,2.6Z" transform="translate(-2.995)"/><path class="b" d="M24.972,71.408a19.123,19.123,0,0,1-11.492-3.923A7.777,7.777,0,0,0,15.3,62.624,7.6,7.6,0,0,0,7.68,55a7.6,7.6,0,1,0-.055,15.193,7.4,7.4,0,0,0,3.757-1.05A21.014,21.014,0,0,0,24.917,73.95a20.5,20.5,0,0,0,7.735-1.492,1.5,1.5,0,0,0,.829-2.044h0a1.029,1.029,0,0,0-1.381-.5A17.351,17.351,0,0,1,24.972,71.408ZM7.956,67.541a5.044,5.044,0,1,1,4.586-3.978A5.044,5.044,0,0,1,7.956,67.541Z" transform="translate(0 -24.613)"/><path class="b" d="M74.226,39.59a23.02,23.02,0,0,0,.221-3.37,21.46,21.46,0,0,0-8.785-17.293,1.157,1.157,0,0,0-1.6.276h0a1.5,1.5,0,0,0,.387,2.044,18.789,18.789,0,0,1,7.4,14.917,19.628,19.628,0,0,1-.166,2.541,8.159,8.159,0,0,0-1.16-.055,7.577,7.577,0,1,0,3.7.939Zm-8.619,5.47A5.045,5.045,0,1,1,70.524,51.3,5.043,5.043,0,0,1,65.607,45.06Z" transform="translate(-28.149 -8.374)"/></g></svg>