<?xml version="1.0" encoding="utf-8"?>
<!-- Generator: Adobe Illustrator 21.0.2, SVG Export Plug-In . SVG Version: 6.00 Build 0)  -->
<svg version="1.1" id="Camada_1" xmlns="http://www.w3.org/2000/svg" xmlns:xlink="http://www.w3.org/1999/xlink" x="0px" y="0px"
	 viewBox="0 0 323 98" style="enable-background:new 0 0 323 98;" xml:space="preserve">
<style type="text/css">
	.st0{fill:#FFFFFF;}
	.st1{opacity:0.15;fill:#FFFFFF;}
	.st2{fill:#F2F2F2;}
	.st3{fill:#D9D8D7;}
	.st4{fill:#386FF9;}
	.st5{fill:#F7DD43;}
	.st6{opacity:0.75;}
</style>
<g>
	<g>
		<path class="st0" d="M101.7,28h1.7l2.4-7.4c0.8,0.2,1.6,0.6,2.3,1c0.7,0.4,1.3,0.8,1.6,1.4s0.6,1.8,0.6,3.8V28h8.3
			c0.3,0.7,0.4,1.4,0.4,2.1c0,0.6-0.1,1-0.3,1.3c-0.2,0.2-0.7,0.3-1.3,0.3h-7.1v9.7c0,2.8,0.2,4.7,0.7,5.8c0.5,1,1.3,1.5,2.4,1.6
			c1.1,0,2.5-0.3,4-1.2c0.5,0.6,0.7,1.4,0.7,2.2c0,1.1-0.6,1.9-1.8,2.3c-1.2,0.4-3,0.6-5.5,0.6c-2.7,0-4.6-0.5-5.8-1.6
			c-1.2-1.1-1.7-3.2-1.7-6.3v-4.3c0-2.7-0.1-5.6-0.2-8.7h-2.5c-0.3-0.7-0.4-1.4-0.4-2.1c0-0.6,0.1-1,0.3-1.2S101.2,28,101.7,28z"/>
		<path class="st0" d="M121.7,29.2c0-0.6,0.2-1,0.7-1.2c0.4-0.2,3.1-0.3,8.1-0.5c0.1,0.7,0.1,1.6,0,2.9c2.1-1.2,3.9-2,5.6-2.5
			c1.7-0.4,3.2-0.6,4.4-0.6c0.6,0,1,0.1,1.2,0.2c0.2,0.1,0.3,0.5,0.3,1c0,0.9-0.1,1.8-0.4,2.8c-0.3,1-0.6,1.6-1,1.9
			c-0.4,0.3-1,0.5-1.9,0.6c-0.9,0.1-1.4,0.2-1.5,0.1s-0.6-0.6-1.4-1.6c-1.2,0-2.1,0.4-2.8,1.3c-0.6,0.9-1,3.1-1,6.8
			c0,3.3,0,6.2,0.1,8.6h3.9c0.3,0.5,0.4,1.1,0.4,1.8c0,0.6-0.1,1-0.4,1.2c-0.2,0.2-0.7,0.3-1.4,0.3h-12.6c-0.3-0.7-0.4-1.3-0.4-1.9
			c0-0.5,0.1-0.9,0.3-1.1c0.2-0.2,0.6-0.3,1.1-0.3h1.8c0.1-2.4,0.1-5.2,0.1-8.4c0-4.6-0.2-7.3-0.7-8.1c-0.4-0.8-1.2-1.3-2.3-1.3
			C121.9,30.5,121.7,29.9,121.7,29.2z"/>
		<path class="st0" d="M154.8,49h2.9c0.3,0.5,0.4,1.1,0.4,1.8c0,0.6-0.1,1-0.4,1.2c-0.2,0.2-0.7,0.3-1.4,0.3h-11.8
			c-0.3-0.7-0.4-1.3-0.4-1.9c0-0.5,0.1-0.9,0.3-1.1c0.2-0.2,0.6-0.3,1.1-0.3h2c0.1-2.1,0.1-4.3,0.1-6.7c0-3.6,0-6-0.1-7.2
			c-0.1-1.2-0.2-2.1-0.4-2.6c-0.2-0.5-0.5-0.9-0.9-1c-0.4-0.1-1-0.2-1.8-0.2c-0.3-0.5-0.4-1-0.4-1.6c0-0.9,0.4-1.5,1.1-1.7
			c0.8-0.2,2.3-0.3,4.6-0.3c1.7,0,2.9,0.1,3.6,0.2c0.6,0.1,1,0.4,1.1,0.8c0.1,0.4,0.1,0.9,0.1,1.6v12.1
			C154.7,44.6,154.7,46.9,154.8,49z M150.3,24.4c-1.5,0-2.5-0.3-3.2-0.8c-0.7-0.6-1-1.4-1-2.4c0-1.1,0.4-2,1.3-2.7
			c0.8-0.7,2-1,3.6-1c1.6,0,2.7,0.3,3.3,0.9c0.7,0.6,1,1.4,1,2.4c0,1.1-0.4,2-1.2,2.7C153.3,24,152.1,24.4,150.3,24.4z"/>
		<path class="st0" d="M185.3,37.3c0,5.8,0,9.7,0.1,11.7h2.7c0.3,0.5,0.4,1.1,0.4,1.8c0,0.6-0.1,1-0.4,1.2c-0.2,0.2-0.7,0.3-1.4,0.3
			h-10.2c-0.3-0.7-0.4-1.3-0.4-1.9c0-0.5,0.1-0.9,0.3-1.1s0.6-0.3,1.1-0.3h0.6c0.1-2.9,0.1-5.7,0.1-8.5c0-3.3-0.3-5.6-0.9-6.7
			c-0.6-1.1-1.6-1.7-3-1.7c-0.8,0-1.6,0.3-2.3,1c-0.7,0.7-1,2.1-1,4.3v4.9c0,2.1,0,4.3,0.1,6.7h1.8c0.3,0.5,0.4,1.1,0.4,1.8
			c0,0.6-0.1,1-0.4,1.2c-0.2,0.2-0.7,0.3-1.4,0.3h-10.4c-0.3-0.7-0.4-1.3-0.4-1.9c0-0.5,0.1-0.9,0.3-1.1c0.2-0.2,0.6-0.3,1.1-0.3
			h1.8c0.1-2.7,0.1-5.5,0.1-8.4c0-4.6-0.2-7.3-0.7-8.1c-0.4-0.8-1.2-1.3-2.3-1.3c-0.3-0.7-0.4-1.3-0.4-2c0-0.6,0.2-1,0.7-1.2
			c0.4-0.2,3.1-0.3,8.1-0.5c0.1,0.7,0.1,1.6,0,2.8c1.8-1.1,3.5-1.9,5-2.4c1.6-0.5,2.9-0.7,4.1-0.7c1.6,0,2.9,0.3,3.7,0.8
			c0.9,0.5,1.5,1.2,1.8,2c1.5-0.9,3-1.6,4.5-2c1.5-0.5,2.8-0.7,4-0.7c2.1,0,3.8,0.5,4.9,1.5c1.1,1,1.7,3.1,1.7,6.2
			c0,8.1,0.1,12.4,0.4,13.1s0.9,0.9,1.9,0.9c0.2,0.6,0.4,1.2,0.4,1.8c0,0.6-0.2,1-0.6,1.2c-0.4,0.2-1.1,0.3-2.2,0.3
			c-2.7,0-4.3,0-5-0.1c-0.7-0.1-1.2-0.3-1.5-0.8c-0.3-0.5-0.4-1.2-0.4-2.3v-8.7c0-3.3-0.3-5.6-0.9-6.7c-0.6-1.1-1.6-1.7-3-1.7
			c-0.8,0-1.6,0.3-2.3,1C185.6,33.7,185.3,35.1,185.3,37.3z"/>
		<path class="st0" d="M228.6,41.5c0,3.3,0.1,5.3,0.4,6.1c0.2,0.8,0.8,1.1,1.8,1c0.2,0.5,0.3,1.1,0.3,1.6c0,0.8-0.6,1.4-1.8,1.8
			c-1.2,0.4-2.3,0.6-3.3,0.6c-0.8,0-1.3-0.1-1.6-0.4c-0.3-0.2-0.8-0.8-1.5-1.8c-1.5,0.8-3,1.4-4.4,1.8c-1.4,0.4-2.9,0.6-4.5,0.6
			c-2.1,0-3.7-0.6-4.9-1.7c-1.2-1.1-1.8-3.4-1.8-6.8c0-5.1,0-8.2-0.1-9.4c-0.1-1.2-0.2-2.1-0.4-2.6c-0.2-0.5-0.5-0.9-0.8-1
			c-0.3-0.1-0.8-0.2-1.4-0.2c-0.3-0.5-0.4-1-0.4-1.6c0-0.8,0.5-1.3,1.4-1.6c0.9-0.3,2.4-0.4,4.4-0.4c1.4,0,2.4,0.1,3,0.3
			c0.6,0.2,1,0.4,1.1,0.8c0.1,0.3,0.2,1.5,0.2,3.5v8.8c0,3.2,0.3,5.3,0.9,6.3c0.6,1,1.5,1.5,2.6,1.5c0.8,0,1.6-0.2,2.3-0.6
			s1.1-0.9,1.3-1.5c0.2-0.6,0.3-1.7,0.3-3.2c0-4.3,0-7.1,0-8.3c0-1.2-0.1-2.1-0.3-2.6c-0.2-0.6-0.4-0.9-0.6-1
			c-0.3-0.1-0.7-0.2-1.3-0.2c-0.3-0.5-0.4-1-0.4-1.6c0-0.8,0.5-1.3,1.4-1.6c0.9-0.3,2.2-0.4,3.9-0.4c1.4,0,2.4,0.1,3,0.3
			c0.6,0.2,1,0.5,1.1,0.9c0.1,0.4,0.2,1.6,0.2,3.6V41.5z"/>
		<path class="st0" d="M234.6,29.2c0-0.6,0.2-1,0.7-1.2c0.4-0.2,3.1-0.3,8.1-0.5c0.1,0.7,0.1,1.6,0,2.9c2.1-1.2,3.9-2,5.6-2.5
			c1.7-0.4,3.2-0.6,4.4-0.6c0.6,0,1,0.1,1.2,0.2c0.2,0.1,0.3,0.5,0.3,1c0,0.9-0.1,1.8-0.4,2.8c-0.3,1-0.6,1.6-1,1.9
			c-0.4,0.3-1,0.5-1.9,0.6c-0.9,0.1-1.4,0.2-1.5,0.1c-0.1-0.1-0.6-0.6-1.4-1.6c-1.2,0-2.1,0.4-2.8,1.3c-0.6,0.9-1,3.1-1,6.8
			c0,3.3,0,6.2,0.1,8.6h3.9c0.3,0.5,0.4,1.1,0.4,1.8c0,0.6-0.1,1-0.4,1.2c-0.2,0.2-0.7,0.3-1.4,0.3H235c-0.3-0.7-0.4-1.3-0.4-1.9
			c0-0.5,0.1-0.9,0.3-1.1c0.2-0.2,0.6-0.3,1.1-0.3h1.8c0.1-2.4,0.1-5.2,0.1-8.4c0-4.6-0.2-7.3-0.7-8.1c-0.4-0.8-1.2-1.3-2.3-1.3
			C234.7,30.5,234.6,29.9,234.6,29.2z"/>
		<path class="st0" d="M258.5,28h1.7l2.4-7.4c0.8,0.2,1.6,0.6,2.3,1c0.7,0.4,1.3,0.8,1.6,1.4c0.4,0.5,0.6,1.8,0.6,3.8V28h8.3
			c0.3,0.7,0.4,1.4,0.4,2.1c0,0.6-0.1,1-0.3,1.3c-0.2,0.2-0.7,0.3-1.3,0.3h-7.1v9.7c0,2.8,0.2,4.7,0.7,5.8c0.5,1,1.3,1.5,2.4,1.6
			c1.1,0,2.5-0.3,4-1.2c0.5,0.6,0.7,1.4,0.7,2.2c0,1.1-0.6,1.9-1.8,2.3c-1.2,0.4-3,0.6-5.5,0.6c-2.7,0-4.6-0.5-5.8-1.6
			c-1.2-1.1-1.7-3.2-1.7-6.3v-4.3c0-2.7-0.1-5.6-0.2-8.7h-2.5c-0.3-0.7-0.4-1.4-0.4-2.1c0-0.6,0.1-1,0.3-1.2S257.9,28,258.5,28z"/>
		<path class="st0" d="M288.7,49h2.9c0.3,0.5,0.4,1.1,0.4,1.8c0,0.6-0.1,1-0.4,1.2s-0.7,0.3-1.4,0.3h-11.8c-0.3-0.7-0.4-1.3-0.4-1.9
			c0-0.5,0.1-0.9,0.3-1.1c0.2-0.2,0.6-0.3,1.1-0.3h2c0.1-2.1,0.1-4.3,0.1-6.7c0-3.6,0-6-0.1-7.2c-0.1-1.2-0.2-2.1-0.4-2.6
			c-0.2-0.5-0.5-0.9-0.9-1c-0.4-0.1-1-0.2-1.8-0.2c-0.3-0.5-0.4-1-0.4-1.6c0-0.9,0.4-1.5,1.1-1.7c0.8-0.2,2.3-0.3,4.6-0.3
			c1.7,0,2.9,0.1,3.6,0.2c0.6,0.1,1,0.4,1.1,0.8c0.1,0.4,0.1,0.9,0.1,1.6v12.1C288.6,44.6,288.6,46.9,288.7,49z M284.2,24.4
			c-1.5,0-2.5-0.3-3.2-0.8c-0.7-0.6-1-1.4-1-2.4c0-1.1,0.4-2,1.3-2.7c0.8-0.7,2-1,3.6-1c1.6,0,2.7,0.3,3.3,0.9c0.7,0.6,1,1.4,1,2.4
			c0,1.1-0.4,2-1.2,2.7C287.2,24,285.9,24.4,284.2,24.4z"/>
		<path class="st0" d="M296.3,49c0.8-1.1,2.9-4.2,6.3-9.1c-1.5-2.2-2.6-3.9-3.3-5c-0.7-1.1-1.3-1.9-1.8-2.5c-0.4-0.5-0.9-0.9-1.3-1
			c-0.4-0.1-0.9-0.2-1.6-0.2c-0.3-0.5-0.4-1.1-0.4-1.8c0-0.8,0.4-1.3,1.3-1.5c0.8-0.2,2.6-0.3,5.4-0.3c0.5,0,1.2,0.1,1.9,0.3
			c0.7,0.2,1.3,0.6,1.6,1.1c0.3,0.6,0.8,1.6,1.5,3c0.7,1.4,1.6,3.2,2.9,5.4c1.4-2.3,2.5-4.2,3.2-5.8H311c-0.3-0.6-0.4-1.2-0.4-1.8
			s0.1-1.1,0.4-1.4c0.3-0.3,0.7-0.4,1.2-0.4h7.4c0.3,0.6,0.4,1.1,0.4,1.8c0,0.7-0.1,1.2-0.4,1.5c-0.3,0.3-0.8,0.4-1.5,0.4H318
			c-2,2.4-4.1,5.3-6.3,8.6c3.4,5.1,5.3,7.8,5.7,8.1c0.5,0.4,1.2,0.5,2.1,0.5c0.2,0.4,0.4,0.9,0.4,1.6c0,0.8-0.3,1.3-0.9,1.5
			c-0.6,0.2-1.6,0.3-2.9,0.3c-2.2,0-3.6,0-4.3-0.1c-0.6-0.1-1.1-0.4-1.5-0.8c-0.3-0.5-2-3.3-5-8.6c-1.8,2.8-2.8,4.9-3.2,6.2h1.6
			c0.3,0.5,0.4,1.1,0.4,1.8c0,0.6-0.1,1-0.4,1.2c-0.2,0.2-0.7,0.3-1.4,0.3h-8.1c-0.3-0.7-0.4-1.3-0.4-1.9c0-0.5,0.1-0.9,0.3-1.1
			c0.2-0.2,0.6-0.3,1.1-0.3H296.3z"/>
	</g>
	<g>
		<circle class="st1" cx="48.1" cy="49" r="45.2"/>
		<g>
			<polygon class="st0" points="48.2,76.2 34.8,68.5 34.8,53 48.2,60.7 			"/>
			<polygon class="st2" points="48.2,45.2 34.8,53 48.2,60.7 61.7,53 			"/>
			<polygon class="st3" points="48.2,76.2 61.7,68.5 61.7,53 48.2,60.7 			"/>
			<polygon class="st4" points="61.7,53 48.2,45.2 48.2,29.7 61.7,37.5 			"/>
			<polygon class="st2" points="61.7,21.9 48.2,29.7 61.7,37.5 75.1,29.7 			"/>
			<polygon class="st5" points="61.7,53 75.1,45.2 75.1,29.7 61.7,37.5 			"/>
			<g>
				<path class="st2" d="M34.8,53.2C34.8,53.2,34.7,53.1,34.8,53.2l-13.5-7.8c-0.1,0-0.1-0.1-0.1-0.2V29.7c0-0.1,0-0.1,0.1-0.2
					c0.1,0,0.1,0,0.2,0l13.4,7.8c0.1,0,0.1,0.1,0.1,0.2V53C35,53,34.9,53.1,34.8,53.2C34.9,53.1,34.8,53.2,34.8,53.2z M21.5,45.1
					l13.1,7.5V37.6L21.5,30L21.5,45.1z"/>
				<path class="st2" d="M34.8,37.6C34.8,37.6,34.7,37.6,34.8,37.6l-13.5-7.8c-0.1,0-0.1-0.1-0.1-0.2c0-0.1,0-0.1,0.1-0.2l13.4-7.8
					c0.1,0,0.1,0,0.2,0l13.4,7.8c0.1,0,0.1,0.1,0.1,0.2c0,0.1,0,0.1-0.1,0.2L34.8,37.6C34.9,37.6,34.8,37.6,34.8,37.6z M21.7,29.7
					l13.1,7.5l13.1-7.5l-13.1-7.5L21.7,29.7z"/>
				<path class="st2" d="M48.2,45.4C48.2,45.4,48.2,45.4,48.2,45.4l-1-0.6c-0.1-0.1-0.1-0.2-0.1-0.2c0-0.1,0.2-0.1,0.2-0.1l0.9,0.5
					c0.1,0,0.1,0.2,0.1,0.2C48.4,45.4,48.3,45.4,48.2,45.4z"/>
				<path class="st2" d="M45.6,43.9C45.6,43.9,45.6,43.9,45.6,43.9l-1.7-1c-0.1,0-0.1-0.2-0.1-0.2c0-0.1,0.2-0.1,0.2-0.1l1.7,1
					c0.1,0.1,0.1,0.2,0.1,0.2C45.8,43.9,45.7,43.9,45.6,43.9z M42.3,42C42.3,42,42.3,42,42.3,42l-1.7-1c-0.1,0-0.1-0.2-0.1-0.2
					c0-0.1,0.2-0.1,0.2-0.1l1.7,1c0.1,0.1,0.1,0.2,0.1,0.2C42.5,42,42.4,42,42.3,42z M39,40.1C39,40.1,39,40.1,39,40.1l-1.7-1
					c-0.1,0-0.1-0.2-0.1-0.2c0-0.1,0.2-0.1,0.2-0.1l1.7,1c0.1,0,0.1,0.2,0.1,0.2C39.2,40.1,39.1,40.1,39,40.1z"/>
				<path class="st2" d="M35.7,38.2C35.7,38.2,35.7,38.2,35.7,38.2l-0.9-0.5l-0.9,0.5c-0.1,0-0.2,0-0.2-0.1c0-0.1,0-0.2,0.1-0.2
					l0.9-0.5c0.1,0,0.1,0,0.2,0l0.9,0.5c0.1,0,0.1,0.2,0.1,0.2C35.9,38.1,35.8,38.2,35.7,38.2z"/>
				<path class="st2" d="M24,43.9c-0.1,0-0.1,0-0.2-0.1c-0.1-0.1,0-0.2,0.1-0.2l1.7-1c0.1,0,0.2,0,0.2,0.1c0.1,0.1,0,0.2-0.1,0.2
					L24,43.9C24,43.9,24,43.9,24,43.9z M27.3,42c-0.1,0-0.1,0-0.2-0.1c0-0.1,0-0.2,0.1-0.2l1.7-1c0.1,0,0.2,0,0.2,0.1
					c0.1,0.1,0,0.2-0.1,0.2L27.3,42C27.3,42,27.3,42,27.3,42z M30.6,40.1c-0.1,0-0.1,0-0.2-0.1c-0.1-0.1,0-0.2,0.1-0.2l1.7-1
					c0.1-0.1,0.2,0,0.2,0.1s0,0.2-0.1,0.2L30.6,40.1C30.6,40.1,30.6,40.1,30.6,40.1z"/>
				<path class="st2" d="M21.4,45.4c-0.1,0-0.1,0-0.2-0.1c-0.1-0.1,0-0.2,0.1-0.2l0.9-0.5c0.1,0,0.2,0,0.2,0.1c0,0.1,0,0.2-0.1,0.2
					L21.4,45.4C21.4,45.4,21.4,45.4,21.4,45.4z"/>
				<path class="st2" d="M34.8,53.2C34.8,53.2,34.7,53.1,34.8,53.2c-0.1-0.1-0.2-0.1-0.2-0.2V37.5c0-0.1,0-0.1,0.1-0.2l13.4-7.8
					c0.1,0,0.1,0,0.2,0c0.1,0,0.1,0.1,0.1,0.2v15.5c0,0.1,0,0.1-0.1,0.2L34.8,53.2C34.9,53.1,34.8,53.2,34.8,53.2z M35,37.6v15.1
					l13.1-7.5V30L35,37.6z"/>
				<path class="st2" d="M34.8,23.2c-0.1,0-0.2-0.1-0.2-0.2v-1.1c0-0.1,0.1-0.2,0.2-0.2c0.1,0,0.2,0.1,0.2,0.2V23
					C35,23.1,34.9,23.2,34.8,23.2z"/>
				<path class="st2" d="M34.8,34.6L34.8,34.6c-0.1,0-0.2-0.1-0.2-0.2v-1.9c0-0.1,0.1-0.2,0.2-0.2l0,0c0.1,0,0.2,0.1,0.2,0.2v1.9
					C35,34.6,34.9,34.6,34.8,34.6z M34.8,30.8c-0.1,0-0.2-0.1-0.2-0.2v-1.9c0-0.1,0.1-0.2,0.2-0.2c0.1,0,0.2,0.1,0.2,0.2v1.9
					C35,30.8,34.9,30.8,34.8,30.8z M34.8,27c-0.1,0-0.2-0.1-0.2-0.2v-1.9c0-0.1,0.1-0.2,0.2-0.2c0.1,0,0.2,0.1,0.2,0.2v1.9
					C35,26.9,34.9,27,34.8,27z"/>
				<path class="st2" d="M34.8,37.6c-0.1,0-0.2-0.1-0.2-0.2v-1.1c0-0.1,0.1-0.2,0.2-0.2c0.1,0,0.2,0.1,0.2,0.2v1.1
					C35,37.6,34.9,37.6,34.8,37.6z"/>
			</g>
		</g>
	</g>
	<g class="st6">
		<path class="st0" d="M132.3,65.4c0,2.5-1.4,3.9-3.9,3.9h-2.8v-7.8h2.8C130.9,61.5,132.3,62.9,132.3,65.4z M131,65.4
			c0-1.8-0.9-2.8-2.6-2.8H127v5.7h1.5C130.1,68.2,131,67.2,131,65.4z"/>
		<path class="st0" d="M140.1,68.2v1.1h-5.8v-7.8h5.7v1.1h-4.4v2.3h3.4v1.1h-3.4v2.3H140.1z"/>
		<path class="st0" d="M145.2,69.3h-1.5l-2.9-7.8h1.3l1.8,5.2l0.5,1.6l0.5-1.5l1.8-5.2h1.3L145.2,69.3z"/>
		<path class="st0" d="M155.4,68.2v1.1h-5.8v-7.8h5.7v1.1h-4.4v2.3h3.4v1.1h-3.4v2.3H155.4z"/>
		<path class="st0" d="M162.7,68.2v1.1h-5.6v-7.8h1.3v6.7H162.7z"/>
		<path class="st0" d="M170.9,65.4c0,2.5-1.4,4-3.7,4c-2.3,0-3.7-1.5-3.7-4s1.4-4,3.7-4C169.4,61.4,170.9,62.9,170.9,65.4z
			 M164.8,65.4c0,1.9,0.9,2.9,2.4,2.9c1.5,0,2.4-1.1,2.4-2.9c0-1.9-0.9-2.9-2.4-2.9C165.7,62.5,164.8,63.6,164.8,65.4z"/>
		<path class="st0" d="M178.5,63.9c0,1.5-1.1,2.4-2.7,2.4H174v2.9h-1.3v-7.8h3C177.4,61.5,178.5,62.4,178.5,63.9z M177.2,63.9
			c0-0.9-0.5-1.4-1.6-1.4H174v2.7h1.5C176.7,65.3,177.2,64.8,177.2,63.9z"/>
		<path class="st0" d="M186,68.2v1.1h-5.8v-7.8h5.7v1.1h-4.4v2.3h3.4v1.1h-3.4v2.3H186z"/>
		<path class="st0" d="M190.7,66.2H189v3.1h-1.3v-7.8h3.2c1.7,0,2.7,0.9,2.7,2.3c0,1.1-0.6,1.9-1.7,2.2l2.1,3.3h-1.5L190.7,66.2z
			 M189,65.1h1.8c1,0,1.5-0.4,1.5-1.3s-0.5-1.3-1.5-1.3H189V65.1z"/>
		<path class="st0" d="M205.1,62.6h-2.7v6.7h-1.3v-6.7h-2.7v-1.1h6.6V62.6z"/>
		<path class="st0" d="M213.3,65.4c0,2.5-1.4,4-3.7,4c-2.3,0-3.7-1.5-3.7-4s1.4-4,3.7-4C211.8,61.4,213.3,62.9,213.3,65.4z
			 M207.2,65.4c0,1.9,0.9,2.9,2.4,2.9c1.5,0,2.4-1.1,2.4-2.9c0-1.9-0.9-2.9-2.4-2.9C208.1,62.5,207.2,63.6,207.2,65.4z"/>
		<path class="st0" d="M222.1,65.4c0,2.5-1.4,4-3.7,4c-2.3,0-3.7-1.5-3.7-4s1.4-4,3.7-4C220.7,61.4,222.1,62.9,222.1,65.4z
			 M216,65.4c0,1.9,0.9,2.9,2.4,2.9c1.5,0,2.4-1.1,2.4-2.9c0-1.9-0.9-2.9-2.4-2.9C216.9,62.5,216,63.6,216,65.4z"/>
		<path class="st0" d="M229.5,68.2v1.1H224v-7.8h1.3v6.7H229.5z"/>
		<path class="st0" d="M236.9,63l-1,0.9c-0.4-0.9-1-1.4-2.2-1.4c-1.1,0-1.7,0.5-1.7,1.2c0,0.6,0.5,1,2,1.2c2.1,0.4,2.9,1,2.9,2.3
			c0,1.4-1.3,2.3-3.1,2.3c-1.7,0-2.8-0.6-3.4-1.6l0.9-0.9c0.5,0.9,1.3,1.4,2.5,1.4c1.1,0,1.8-0.4,1.8-1.1c0-0.6-0.5-0.9-1.9-1.1
			c-2.1-0.4-2.9-1.1-2.9-2.3c0-1.3,1.1-2.4,3-2.4C235.2,61.4,236.2,61.9,236.9,63z"/>
		<path class="st0" d="M248.3,63.9c0,1.5-1.1,2.4-2.7,2.4h-1.7v2.9h-1.3v-7.8h3C247.2,61.5,248.3,62.4,248.3,63.9z M247,63.9
			c0-0.9-0.5-1.4-1.6-1.4h-1.5v2.7h1.5C246.5,65.3,247,64.8,247,63.9z"/>
		<path class="st0" d="M255.5,68.2v1.1H250v-7.8h1.3v6.7H255.5z"/>
		<path class="st0" d="M261.5,67.3h-3.3l-0.7,2h-1.3l2.9-7.8h1.5l2.9,7.8h-1.3L261.5,67.3z M261.1,66.2l-0.9-2.5l-0.4-1.1h0
			l-0.3,1.1l-0.9,2.5H261.1z"/>
		<path class="st0" d="M269.7,62.6H267v6.7h-1.3v-6.7h-2.7v-1.1h6.6V62.6z"/>
		<path class="st0" d="M272.5,62.6v2.3h3.4V66h-3.4v3.4h-1.3v-7.8h5.6v1.1H272.5z"/>
		<path class="st0" d="M285.3,65.4c0,2.5-1.4,4-3.7,4c-2.3,0-3.7-1.5-3.7-4s1.4-4,3.7-4C283.8,61.4,285.3,62.9,285.3,65.4z
			 M279.2,65.4c0,1.9,0.9,2.9,2.4,2.9c1.5,0,2.4-1.1,2.4-2.9c0-1.9-0.9-2.9-2.4-2.9C280.1,62.5,279.2,63.6,279.2,65.4z"/>
		<path class="st0" d="M290.1,66.2h-1.7v3.1h-1.3v-7.8h3.2c1.7,0,2.7,0.9,2.7,2.3c0,1.1-0.6,1.9-1.7,2.2l2.1,3.3h-1.5L290.1,66.2z
			 M288.4,65.1h1.8c1,0,1.5-0.4,1.5-1.3s-0.5-1.3-1.5-1.3h-1.8V65.1z"/>
		<path class="st0" d="M303.1,69.3h-1.2v-4.5l0.1-2.2h0l-2.4,6.7h-1.1l-2.4-6.7h0l0.1,2.2v4.5h-1.2v-7.8h1.9l1.6,4.5l0.5,1.9h0
			l0.6-1.9l1.6-4.5h1.8V69.3z"/>
	</g>
</g>
</svg>
