<?xml version="1.0" encoding="utf-8"?>
<!-- Generator: Adobe Illustrator 21.0.2, SVG Export Plug-In . SVG Version: 6.00 Build 0)  -->
<svg version="1.1" id="Camada_1" xmlns="http://www.w3.org/2000/svg" xmlns:xlink="http://www.w3.org/1999/xlink" x="0px" y="0px"
	 viewBox="0 0 189 135" style="enable-background:new 0 0 189 135;" xml:space="preserve">
<style type="text/css">
	.st0{fill:#FFFFFF;}
	.st1{opacity:0.15;fill:#FFFFFF;}
	.st2{fill:#F2F2F2;}
	.st3{fill:#D9D8D7;}
	.st4{fill:#386FF9;}
	.st5{fill:#F7DD43;}
	.st6{opacity:0.75;fill:#FFFFFF;}
</style>
<g>
	<g>
		<path class="st0" d="M9.5,92.9h1.3l1.9-5.8c0.7,0.2,1.3,0.4,1.8,0.8c0.6,0.3,1,0.7,1.3,1.1s0.4,1.4,0.4,2.9v1h6.5
			c0.2,0.5,0.3,1.1,0.3,1.6c0,0.5-0.1,0.8-0.3,1c-0.2,0.2-0.5,0.3-1,0.3h-5.5v7.6c0,2.2,0.2,3.7,0.6,4.5c0.4,0.8,1,1.2,1.9,1.2
			c0.9,0,1.9-0.3,3.2-0.9c0.4,0.5,0.6,1.1,0.6,1.7c0,0.9-0.5,1.5-1.4,1.8c-0.9,0.3-2.3,0.5-4.3,0.5c-2.1,0-3.6-0.4-4.5-1.3
			c-0.9-0.8-1.4-2.5-1.4-4.9v-3.4c0-2.1-0.1-4.4-0.2-6.8h-2c-0.2-0.6-0.3-1.1-0.3-1.7c0-0.4,0.1-0.7,0.3-0.9
			C8.8,93,9.1,92.9,9.5,92.9z"/>
		<path class="st0" d="M25.2,93.9c0-0.5,0.2-0.8,0.5-0.9c0.3-0.1,2.5-0.3,6.4-0.4c0.1,0.5,0.1,1.3,0,2.2c1.6-1,3.1-1.6,4.4-1.9
			c1.3-0.3,2.5-0.5,3.5-0.5c0.5,0,0.8,0.1,0.9,0.2c0.2,0.1,0.2,0.4,0.2,0.8c0,0.7-0.1,1.4-0.3,2.2c-0.2,0.8-0.5,1.3-0.8,1.5
			c-0.3,0.2-0.8,0.4-1.5,0.5c-0.7,0.1-1.1,0.1-1.2,0.1c-0.1-0.1-0.5-0.5-1.1-1.3c-1,0-1.7,0.3-2.2,1c-0.5,0.7-0.8,2.5-0.8,5.3
			c0,2.6,0,4.9,0.1,6.7h3c0.2,0.4,0.3,0.9,0.3,1.4c0,0.5-0.1,0.8-0.3,0.9c-0.2,0.2-0.5,0.3-1.1,0.3h-9.8c-0.2-0.5-0.3-1-0.3-1.5
			c0-0.4,0.1-0.7,0.3-0.9c0.2-0.2,0.5-0.3,0.9-0.3h1.4c0.1-1.9,0.1-4.1,0.1-6.6c0-3.6-0.2-5.7-0.5-6.4c-0.3-0.7-0.9-1-1.8-1
			C25.4,94.9,25.2,94.4,25.2,93.9z"/>
		<path class="st0" d="M51.2,109.3h2.3c0.2,0.4,0.3,0.9,0.3,1.4c0,0.5-0.1,0.8-0.3,0.9c-0.2,0.2-0.5,0.3-1.1,0.3h-9.3
			c-0.2-0.5-0.3-1-0.3-1.5c0-0.4,0.1-0.7,0.3-0.9c0.2-0.2,0.5-0.3,0.9-0.3h1.6c0.1-1.6,0.1-3.4,0.1-5.3c0-2.8,0-4.7-0.1-5.7
			c0-0.9-0.1-1.6-0.3-2c-0.2-0.4-0.4-0.7-0.7-0.8c-0.3-0.1-0.8-0.2-1.4-0.2c-0.2-0.4-0.3-0.8-0.3-1.3c0-0.7,0.3-1.2,0.9-1.3
			c0.6-0.2,1.8-0.3,3.6-0.3c1.4,0,2.3,0.1,2.8,0.2c0.5,0.1,0.8,0.3,0.8,0.6c0.1,0.3,0.1,0.7,0.1,1.3v9.5
			C51.1,105.9,51.1,107.7,51.2,109.3z M47.6,90.1c-1.2,0-2-0.2-2.5-0.7c-0.5-0.4-0.8-1.1-0.8-1.9c0-0.8,0.3-1.5,1-2.1
			c0.7-0.5,1.6-0.8,2.8-0.8c1.2,0,2.1,0.2,2.6,0.7c0.5,0.5,0.8,1.1,0.8,1.8c0,0.8-0.3,1.5-0.9,2.1S49,90.1,47.6,90.1z"/>
		<path class="st0" d="M75,100.2c0,4.6,0,7.6,0.1,9.1h2.1c0.2,0.4,0.3,0.9,0.3,1.4c0,0.5-0.1,0.8-0.3,0.9c-0.2,0.2-0.5,0.3-1.1,0.3
			h-8c-0.2-0.5-0.3-1-0.3-1.5c0-0.4,0.1-0.7,0.3-0.9c0.2-0.2,0.5-0.3,0.9-0.3h0.5c0.1-2.2,0.1-4.5,0.1-6.7c0-2.6-0.2-4.4-0.7-5.3
			c-0.5-0.9-1.3-1.3-2.3-1.3c-0.7,0-1.2,0.3-1.8,0.8c-0.5,0.5-0.8,1.6-0.8,3.3v3.9c0,1.6,0,3.4,0.1,5.3h1.4c0.2,0.4,0.3,0.9,0.3,1.4
			c0,0.5-0.1,0.8-0.3,0.9c-0.2,0.2-0.5,0.3-1.1,0.3h-8.2c-0.2-0.5-0.3-1-0.3-1.5c0-0.4,0.1-0.7,0.3-0.9c0.2-0.2,0.5-0.3,0.9-0.3h1.4
			c0.1-2.1,0.1-4.3,0.1-6.6c0-3.6-0.2-5.7-0.5-6.4c-0.3-0.7-0.9-1-1.8-1c-0.2-0.5-0.3-1-0.3-1.5c0-0.5,0.2-0.8,0.5-0.9
			c0.3-0.1,2.5-0.3,6.4-0.4c0.1,0.5,0.1,1.3,0,2.2c1.4-0.9,2.7-1.5,3.9-1.9c1.2-0.4,2.3-0.5,3.2-0.5c1.3,0,2.2,0.2,2.9,0.6
			c0.7,0.4,1.2,0.9,1.4,1.6c1.2-0.7,2.3-1.2,3.5-1.6c1.2-0.4,2.2-0.5,3.1-0.5c1.7,0,3,0.4,3.8,1.2c0.9,0.8,1.3,2.4,1.3,4.8
			c0,6.3,0.1,9.7,0.3,10.2s0.7,0.7,1.5,0.7c0.2,0.5,0.3,0.9,0.3,1.4c0,0.5-0.2,0.8-0.5,0.9c-0.3,0.2-0.9,0.3-1.7,0.3
			c-2.1,0-3.4,0-4-0.1c-0.6-0.1-0.9-0.3-1.1-0.6c-0.2-0.4-0.3-0.9-0.3-1.8v-6.8c0-2.6-0.2-4.4-0.7-5.3c-0.5-0.9-1.3-1.3-2.3-1.3
			c-0.7,0-1.2,0.3-1.8,0.8C75.3,97.4,75,98.5,75,100.2z"/>
		<path class="st0" d="M109,103.5c0,2.6,0.1,4.1,0.3,4.8c0.2,0.6,0.7,0.9,1.4,0.8c0.2,0.4,0.3,0.8,0.3,1.2c0,0.6-0.5,1.1-1.4,1.4
			c-0.9,0.3-1.8,0.5-2.6,0.5c-0.6,0-1-0.1-1.3-0.3c-0.2-0.2-0.6-0.7-1.1-1.4c-1.2,0.6-2.3,1.1-3.4,1.4c-1.1,0.3-2.3,0.5-3.5,0.5
			c-1.6,0-2.9-0.4-3.9-1.3c-0.9-0.9-1.4-2.6-1.4-5.3c0-4,0-6.4-0.1-7.4c0-0.9-0.1-1.6-0.3-2c-0.2-0.4-0.4-0.7-0.6-0.8
			c-0.3-0.1-0.6-0.2-1.1-0.2c-0.2-0.4-0.3-0.8-0.3-1.3c0-0.6,0.4-1,1.1-1.2c0.7-0.2,1.9-0.3,3.4-0.3c1.1,0,1.9,0.1,2.4,0.2
			c0.5,0.1,0.7,0.3,0.9,0.6c0.1,0.3,0.2,1.2,0.2,2.7v6.9c0,2.5,0.2,4.1,0.7,4.9c0.5,0.8,1.2,1.2,2,1.2c0.7,0,1.3-0.1,1.8-0.4
			c0.6-0.3,0.9-0.7,1-1.1c0.1-0.5,0.2-1.3,0.2-2.5c0-3.4,0-5.6,0-6.5c0-0.9-0.1-1.6-0.2-2c-0.1-0.4-0.3-0.7-0.5-0.8
			c-0.2-0.1-0.5-0.2-1-0.2c-0.2-0.4-0.3-0.8-0.3-1.3c0-0.6,0.4-1,1.1-1.2c0.7-0.2,1.7-0.3,3.1-0.3c1.1,0,1.9,0.1,2.4,0.2
			c0.5,0.1,0.7,0.4,0.9,0.7c0.1,0.3,0.2,1.3,0.2,2.8V103.5z"/>
		<path class="st0" d="M113.7,93.9c0-0.5,0.2-0.8,0.5-0.9c0.3-0.1,2.5-0.3,6.4-0.4c0.1,0.5,0.1,1.3,0,2.2c1.6-1,3.1-1.6,4.4-1.9
			c1.3-0.3,2.5-0.5,3.5-0.5c0.5,0,0.8,0.1,0.9,0.2c0.2,0.1,0.2,0.4,0.2,0.8c0,0.7-0.1,1.4-0.3,2.2c-0.2,0.8-0.5,1.3-0.8,1.5
			c-0.3,0.2-0.8,0.4-1.5,0.5c-0.7,0.1-1.1,0.1-1.2,0.1c-0.1-0.1-0.5-0.5-1.1-1.3c-1,0-1.7,0.3-2.2,1c-0.5,0.7-0.8,2.5-0.8,5.3
			c0,2.6,0,4.9,0.1,6.7h3c0.2,0.4,0.3,0.9,0.3,1.4c0,0.5-0.1,0.8-0.3,0.9c-0.2,0.2-0.5,0.3-1.1,0.3H114c-0.2-0.5-0.3-1-0.3-1.5
			c0-0.4,0.1-0.7,0.3-0.9c0.2-0.2,0.5-0.3,0.9-0.3h1.4c0.1-1.9,0.1-4.1,0.1-6.6c0-3.6-0.2-5.7-0.5-6.4c-0.3-0.7-0.9-1-1.8-1
			C113.8,94.9,113.7,94.4,113.7,93.9z"/>
		<path class="st0" d="M132.4,92.9h1.3l1.9-5.8c0.7,0.2,1.3,0.4,1.8,0.8c0.6,0.3,1,0.7,1.3,1.1c0.3,0.4,0.4,1.4,0.4,2.9v1h6.5
			c0.2,0.5,0.3,1.1,0.3,1.6c0,0.5-0.1,0.8-0.3,1c-0.2,0.2-0.5,0.3-1,0.3h-5.5v7.6c0,2.2,0.2,3.7,0.6,4.5c0.4,0.8,1,1.2,1.9,1.2
			c0.9,0,1.9-0.3,3.2-0.9c0.4,0.5,0.6,1.1,0.6,1.7c0,0.9-0.5,1.5-1.4,1.8c-0.9,0.3-2.3,0.5-4.3,0.5c-2.1,0-3.6-0.4-4.5-1.3
			c-0.9-0.8-1.4-2.5-1.4-4.9v-3.4c0-2.1-0.1-4.4-0.2-6.8h-2c-0.2-0.6-0.3-1.1-0.3-1.7c0-0.4,0.1-0.7,0.3-0.9
			C131.7,93,132,92.9,132.4,92.9z"/>
		<path class="st0" d="M156.1,109.3h2.3c0.2,0.4,0.3,0.9,0.3,1.4c0,0.5-0.1,0.8-0.3,0.9c-0.2,0.2-0.5,0.3-1.1,0.3H148
			c-0.2-0.5-0.3-1-0.3-1.5c0-0.4,0.1-0.7,0.3-0.9c0.2-0.2,0.5-0.3,0.9-0.3h1.6c0.1-1.6,0.1-3.4,0.1-5.3c0-2.8,0-4.7-0.1-5.7
			c0-0.9-0.1-1.6-0.3-2c-0.2-0.4-0.4-0.7-0.7-0.8c-0.3-0.1-0.8-0.2-1.4-0.2c-0.2-0.4-0.3-0.8-0.3-1.3c0-0.7,0.3-1.2,0.9-1.3
			c0.6-0.2,1.8-0.3,3.6-0.3c1.4,0,2.3,0.1,2.8,0.2c0.5,0.1,0.8,0.3,0.8,0.6c0.1,0.3,0.1,0.7,0.1,1.3v9.5
			C155.9,105.9,156,107.7,156.1,109.3z M152.5,90.1c-1.2,0-2-0.2-2.5-0.7c-0.5-0.4-0.8-1.1-0.8-1.9c0-0.8,0.3-1.5,1-2.1
			c0.7-0.5,1.6-0.8,2.8-0.8c1.2,0,2.1,0.2,2.6,0.7c0.5,0.5,0.8,1.1,0.8,1.8c0,0.8-0.3,1.5-0.9,2.1S153.9,90.1,152.5,90.1z"/>
		<path class="st0" d="M162,109.3c0.6-0.9,2.3-3.3,5-7.1c-1.1-1.7-2-3.1-2.6-3.9c-0.6-0.9-1-1.5-1.4-1.9c-0.3-0.4-0.7-0.7-1-0.8
			c-0.3-0.1-0.7-0.2-1.2-0.2c-0.2-0.4-0.3-0.8-0.3-1.4c0-0.6,0.3-1,1-1.2c0.7-0.2,2.1-0.3,4.2-0.3c0.4,0,0.9,0.1,1.5,0.2
			c0.6,0.2,1,0.5,1.3,0.9s0.6,1.2,1.2,2.4c0.5,1.1,1.3,2.5,2.3,4.2c1.1-1.8,1.9-3.3,2.5-4.5h-0.9c-0.2-0.4-0.3-0.9-0.3-1.4
			s0.1-0.9,0.3-1.1c0.2-0.2,0.5-0.3,1-0.3h5.8c0.2,0.4,0.3,0.9,0.3,1.4c0,0.6-0.1,1-0.3,1.2c-0.2,0.2-0.6,0.3-1.2,0.3H179
			c-1.6,1.9-3.2,4.1-4.9,6.8c2.6,4,4.1,6.1,4.5,6.4c0.4,0.3,0.9,0.4,1.6,0.4c0.2,0.3,0.3,0.7,0.3,1.2c0,0.6-0.2,1-0.7,1.2
			c-0.5,0.2-1.2,0.3-2.2,0.3c-1.7,0-2.9,0-3.3-0.1c-0.5-0.1-0.9-0.3-1.1-0.6c-0.3-0.4-1.6-2.6-3.9-6.7c-1.4,2.2-2.2,3.8-2.5,4.9h1.3
			c0.2,0.4,0.3,0.9,0.3,1.4c0,0.5-0.1,0.8-0.3,0.9c-0.2,0.2-0.5,0.3-1.1,0.3h-6.3c-0.2-0.5-0.3-1-0.3-1.5c0-0.4,0.1-0.7,0.3-0.9
			c0.2-0.2,0.5-0.3,0.9-0.3H162z"/>
	</g>
	<g>
		<circle class="st1" cx="92" cy="41.2" r="35.2"/>
		<g>
			<polygon class="st0" points="92.1,62.4 81.6,56.4 81.6,44.3 92.1,50.4 			"/>
			<polygon class="st2" points="92.1,38.3 81.6,44.3 92.1,50.4 102.5,44.3 			"/>
			<polygon class="st3" points="92.1,62.4 102.5,56.4 102.5,44.3 92.1,50.4 			"/>
			<polygon class="st4" points="102.5,44.3 92.1,38.3 92.1,26.2 102.5,32.2 			"/>
			<polygon class="st2" points="102.5,20.2 92.1,26.2 102.5,32.2 113,26.2 			"/>
			<polygon class="st5" points="102.5,44.3 113,38.3 113,26.2 102.5,32.2 			"/>
			<g>
				<path class="st2" d="M81.6,44.5C81.6,44.5,81.5,44.5,81.6,44.5l-10.5-6.1c0,0-0.1-0.1-0.1-0.1V26.2c0-0.1,0-0.1,0.1-0.1
					c0,0,0.1,0,0.1,0l10.5,6c0,0,0.1,0.1,0.1,0.1v12.1C81.7,44.4,81.7,44.4,81.6,44.5C81.6,44.5,81.6,44.5,81.6,44.5z M71.3,38.2
					l10.2,5.9V32.3l-10.2-5.9V38.2z"/>
				<path class="st2" d="M81.6,32.4C81.6,32.4,81.5,32.4,81.6,32.4l-10.5-6.1c0,0-0.1-0.1-0.1-0.1c0-0.1,0-0.1,0.1-0.1l10.5-6
					c0,0,0.1,0,0.1,0l10.5,6c0,0,0.1,0.1,0.1,0.1c0,0,0,0.1-0.1,0.1L81.6,32.4C81.6,32.4,81.6,32.4,81.6,32.4z M71.4,26.2l10.2,5.9
					l10.2-5.9l-10.2-5.9L71.4,26.2z"/>
				<path class="st2" d="M92.1,38.4C92,38.4,92,38.4,92.1,38.4L91.3,38c-0.1,0-0.1-0.1-0.1-0.2c0-0.1,0.1-0.1,0.2-0.1l0.7,0.4
					c0.1,0,0.1,0.1,0.1,0.2C92.1,38.4,92.1,38.4,92.1,38.4z"/>
				<path class="st2" d="M90,37.3C90,37.3,90,37.2,90,37.3l-1.4-0.8c-0.1,0-0.1-0.1-0.1-0.2c0-0.1,0.1-0.1,0.2-0.1l1.3,0.7
					c0.1,0,0.1,0.1,0.1,0.2C90.1,37.2,90.1,37.3,90,37.3z M87.5,35.8C87.4,35.8,87.4,35.8,87.5,35.8L86.1,35c-0.1,0-0.1-0.1-0.1-0.2
					c0-0.1,0.1-0.1,0.2-0.1l1.3,0.7c0.1,0,0.1,0.1,0.1,0.2C87.6,35.7,87.5,35.8,87.5,35.8z M84.9,34.3
					C84.9,34.3,84.8,34.3,84.9,34.3l-1.4-0.8c-0.1,0-0.1-0.1-0.1-0.2c0-0.1,0.1-0.1,0.2-0.1L85,34c0.1,0,0.1,0.1,0.1,0.2
					C85,34.3,84.9,34.3,84.9,34.3z"/>
				<path class="st2" d="M82.3,32.8C82.3,32.8,82.3,32.8,82.3,32.8l-0.7-0.4l-0.7,0.4c-0.1,0-0.2,0-0.2-0.1s0-0.2,0.1-0.2l0.7-0.4
					c0,0,0.1,0,0.1,0l0.7,0.4c0.1,0,0.1,0.1,0.1,0.2C82.4,32.8,82.4,32.8,82.3,32.8z"/>
				<path class="st2" d="M73.1,37.3c0,0-0.1,0-0.1-0.1c0-0.1,0-0.2,0.1-0.2l1.3-0.7c0.1,0,0.2,0,0.2,0.1c0,0.1,0,0.2-0.1,0.2
					L73.1,37.3C73.2,37.2,73.2,37.3,73.1,37.3z M75.7,35.8c0,0-0.1,0-0.1-0.1c0-0.1,0-0.2,0.1-0.2l1.3-0.7c0.1,0,0.2,0,0.2,0.1
					c0,0.1,0,0.2-0.1,0.2L75.7,35.8C75.8,35.8,75.7,35.8,75.7,35.8z M78.3,34.3c0,0-0.1,0-0.1-0.1c0-0.1,0-0.2,0.1-0.2l1.3-0.7
					c0.1,0,0.2,0,0.2,0.1c0,0.1,0,0.2-0.1,0.2L78.3,34.3C78.3,34.3,78.3,34.3,78.3,34.3z"/>
				<path class="st2" d="M71.1,38.4c0,0-0.1,0-0.1-0.1c0-0.1,0-0.2,0.1-0.2l0.7-0.4c0.1,0,0.2,0,0.2,0.1c0,0.1,0,0.2-0.1,0.2
					L71.1,38.4C71.2,38.4,71.2,38.4,71.1,38.4z"/>
				<path class="st2" d="M81.6,44.5C81.6,44.5,81.5,44.5,81.6,44.5c-0.1,0-0.1-0.1-0.1-0.1V32.2c0,0,0-0.1,0.1-0.1l10.5-6
					c0,0,0.1,0,0.1,0c0,0,0.1,0.1,0.1,0.1v12.1c0,0.1,0,0.1-0.1,0.1L81.6,44.5C81.6,44.5,81.6,44.5,81.6,44.5z M81.7,32.3v11.8
					l10.2-5.9V26.4L81.7,32.3z"/>
				<path class="st2" d="M81.6,21.1c-0.1,0-0.1-0.1-0.1-0.1v-0.8c0-0.1,0.1-0.1,0.1-0.1s0.1,0.1,0.1,0.1V21
					C81.7,21.1,81.7,21.1,81.6,21.1z"/>
				<path class="st2" d="M81.6,30L81.6,30c-0.1,0-0.1-0.1-0.1-0.1v-1.5c0-0.1,0.1-0.1,0.1-0.1l0,0c0.1,0,0.1,0.1,0.1,0.1v1.5
					C81.7,30,81.7,30,81.6,30z M81.6,27.1c-0.1,0-0.1-0.1-0.1-0.1v-1.5c0-0.1,0.1-0.1,0.1-0.1c0.1,0,0.1,0.1,0.1,0.1v1.5
					C81.7,27,81.7,27.1,81.6,27.1z M81.6,24.1c-0.1,0-0.1-0.1-0.1-0.1v-1.5c0-0.1,0.1-0.1,0.1-0.1s0.1,0.1,0.1,0.1V24
					C81.7,24,81.7,24.1,81.6,24.1z"/>
				<path class="st2" d="M81.6,32.4c-0.1,0-0.1-0.1-0.1-0.1v-0.8c0-0.1,0.1-0.1,0.1-0.1c0.1,0,0.1,0.1,0.1,0.1v0.8
					C81.7,32.3,81.7,32.4,81.6,32.4z"/>
			</g>
		</g>
	</g>
	<path class="st6" d="M30.3,125.7c0,2-1.2,3.2-3.1,3.2H25v-6.3h2.2C29.2,122.5,30.3,123.7,30.3,125.7z M29.3,125.7
		c0-1.5-0.7-2.3-2.1-2.3H26v4.6h1.2C28.5,128,29.3,127.1,29.3,125.7z"/>
	<path class="st6" d="M36.6,128v0.9h-4.7v-6.3h4.6v0.9h-3.6v1.8h2.8v0.9h-2.8v1.9H36.6z"/>
	<path class="st6" d="M40.8,128.8h-1.2l-2.3-6.3h1.1l1.5,4.2l0.4,1.3l0.4-1.2l1.5-4.2h1.1L40.8,128.8z"/>
	<path class="st6" d="M49,128v0.9h-4.7v-6.3h4.6v0.9h-3.6v1.8h2.8v0.9h-2.8v1.9H49z"/>
	<path class="st6" d="M54.9,128v0.9h-4.5v-6.3h1v5.4H54.9z"/>
	<path class="st6" d="M61.5,125.7c0,2-1.1,3.3-3,3.3c-1.8,0-3-1.2-3-3.3c0-2,1.1-3.3,3-3.3C60.3,122.4,61.5,123.7,61.5,125.7z
		 M56.6,125.7c0,1.5,0.7,2.4,1.9,2.4c1.2,0,1.9-0.9,1.9-2.4c0-1.5-0.7-2.4-1.9-2.4C57.3,123.3,56.6,124.2,56.6,125.7z"/>
	<path class="st6" d="M67.6,124.5c0,1.2-0.9,2-2.2,2H64v2.4h-1v-6.3h2.4C66.8,122.5,67.6,123.3,67.6,124.5z M66.6,124.5
		c0-0.7-0.4-1.1-1.3-1.1H64v2.2h1.2C66.2,125.6,66.6,125.2,66.6,124.5z"/>
	<path class="st6" d="M73.7,128v0.9H69v-6.3h4.6v0.9H70v1.8h2.8v0.9H70v1.9H73.7z"/>
	<path class="st6" d="M77.5,126.3h-1.4v2.5h-1v-6.3h2.6c1.4,0,2.2,0.7,2.2,1.9c0,0.9-0.5,1.5-1.3,1.8l1.7,2.6h-1.2L77.5,126.3z
		 M76.1,125.5h1.5c0.8,0,1.2-0.3,1.2-1c0-0.7-0.4-1-1.2-1h-1.5V125.5z"/>
	<path class="st6" d="M89.1,123.4h-2.2v5.4h-1v-5.4h-2.2v-0.9h5.4V123.4z"/>
	<path class="st6" d="M95.7,125.7c0,2-1.1,3.3-3,3.3c-1.8,0-3-1.2-3-3.3c0-2,1.1-3.3,3-3.3C94.6,122.4,95.7,123.7,95.7,125.7z
		 M90.8,125.7c0,1.5,0.7,2.4,1.9,2.4c1.2,0,1.9-0.9,1.9-2.4c0-1.5-0.7-2.4-1.9-2.4C91.5,123.3,90.8,124.2,90.8,125.7z"/>
	<path class="st6" d="M102.8,125.7c0,2-1.1,3.3-3,3.3c-1.8,0-3-1.2-3-3.3c0-2,1.1-3.3,3-3.3C101.7,122.4,102.8,123.7,102.8,125.7z
		 M97.9,125.7c0,1.5,0.7,2.4,1.9,2.4c1.2,0,1.9-0.9,1.9-2.4c0-1.5-0.7-2.4-1.9-2.4C98.7,123.3,97.9,124.2,97.9,125.7z"/>
	<path class="st6" d="M108.9,128v0.9h-4.5v-6.3h1v5.4H108.9z"/>
	<path class="st6" d="M114.8,123.7l-0.8,0.7c-0.4-0.8-0.8-1.1-1.7-1.1c-0.9,0-1.4,0.4-1.4,0.9c0,0.5,0.4,0.8,1.6,1
		c1.7,0.3,2.3,0.8,2.3,1.8c0,1.1-1,1.8-2.5,1.8c-1.4,0-2.2-0.5-2.7-1.3l0.7-0.7c0.4,0.8,1,1.1,2,1.1c0.9,0,1.5-0.3,1.5-0.9
		c0-0.4-0.4-0.7-1.6-0.9c-1.7-0.3-2.4-0.9-2.4-1.9c0-1.1,0.9-1.9,2.5-1.9C113.4,122.4,114.2,122.9,114.8,123.7z"/>
	<path class="st6" d="M124,124.5c0,1.2-0.9,2-2.2,2h-1.4v2.4h-1v-6.3h2.4C123.1,122.5,124,123.3,124,124.5z M122.9,124.5
		c0-0.7-0.4-1.1-1.3-1.1h-1.2v2.2h1.2C122.5,125.6,122.9,125.2,122.9,124.5z"/>
	<path class="st6" d="M129.9,128v0.9h-4.5v-6.3h1v5.4H129.9z"/>
	<path class="st6" d="M134.6,127.2H132l-0.6,1.7h-1.1l2.4-6.3h1.2l2.4,6.3h-1.1L134.6,127.2z M134.3,126.4l-0.7-2l-0.3-0.9h0
		l-0.3,0.9l-0.7,2H134.3z"/>
	<path class="st6" d="M141.3,123.4h-2.2v5.4h-1v-5.4h-2.2v-0.9h5.4V123.4z"/>
	<path class="st6" d="M143.5,123.4v1.8h2.8v0.9h-2.8v2.7h-1v-6.3h4.6v0.9H143.5z"/>
	<path class="st6" d="M153.9,125.7c0,2-1.1,3.3-3,3.3c-1.8,0-3-1.2-3-3.3c0-2,1.1-3.3,3-3.3C152.7,122.4,153.9,123.7,153.9,125.7z
		 M149,125.7c0,1.5,0.7,2.4,1.9,2.4c1.2,0,1.9-0.9,1.9-2.4c0-1.5-0.7-2.4-1.9-2.4C149.7,123.3,149,124.2,149,125.7z"/>
	<path class="st6" d="M157.8,126.3h-1.4v2.5h-1v-6.3h2.6c1.4,0,2.2,0.7,2.2,1.9c0,0.9-0.5,1.5-1.3,1.8l1.7,2.6h-1.2L157.8,126.3z
		 M156.4,125.5h1.5c0.8,0,1.2-0.3,1.2-1c0-0.7-0.4-1-1.2-1h-1.5V125.5z"/>
	<path class="st6" d="M168.3,128.8h-0.9v-3.7l0.1-1.7h0l-1.9,5.4h-0.9l-1.9-5.4h0l0.1,1.7v3.7h-0.9v-6.3h1.5l1.3,3.7l0.4,1.5h0
		l0.4-1.5l1.3-3.7h1.5V128.8z"/>
</g>
</svg>
