<svg xmlns="http://www.w3.org/2000/svg" viewBox="-824 469 224.255 142.973"><defs><style>.a{fill:#343c46;}.b{fill:#9a74ce;}</style></defs><g transform="translate(-1354.323 -5.191)"><g transform="translate(530.323 474.191)"><g transform="translate(0 87.452)"><path class="a" d="M104.122,27.254h1.794l2.455-7.554a17.574,17.574,0,0,1,2.361.944,4.277,4.277,0,0,1,1.7,1.416c.378.567.567,1.794.567,3.871v1.322h8.5a5.6,5.6,0,0,1,.472,2.172,1.708,1.708,0,0,1-.378,1.322,2.09,2.09,0,0,1-1.322.283h-7.176v9.914a15.641,15.641,0,0,0,.755,5.854A2.56,2.56,0,0,0,116.3,48.4a9.183,9.183,0,0,0,4.155-1.228,3.842,3.842,0,0,1,.755,2.266,2.211,2.211,0,0,1-1.794,2.266,20.016,20.016,0,0,1-5.571.567q-4.107,0-5.949-1.7c-1.228-1.133-1.794-3.21-1.794-6.421V39.812c0-2.738-.094-5.76-.283-8.876h-2.549a6,6,0,0,1-.472-2.172,1.6,1.6,0,0,1,.378-1.227C103.178,27.348,103.555,27.254,104.122,27.254Z" transform="translate(-102.8 -16.395)"/><path class="a" d="M125.9,28.883a1.2,1.2,0,0,1,.661-1.228c.472-.189,3.21-.378,8.309-.472a14.84,14.84,0,0,1,0,2.927,24.541,24.541,0,0,1,5.76-2.549,16.935,16.935,0,0,1,4.532-.661,3.281,3.281,0,0,1,1.227.189,1.364,1.364,0,0,1,.283,1.039,10.839,10.839,0,0,1-.378,2.927,3.4,3.4,0,0,1-1.039,1.888,5.293,5.293,0,0,1-1.983.661,4.661,4.661,0,0,1-1.511.094,8.37,8.37,0,0,1-1.416-1.7,3.411,3.411,0,0,0-2.833,1.322c-.661.944-1.039,3.21-1.039,6.893,0,3.4,0,6.326.094,8.781h3.966a3.992,3.992,0,0,1,.472,1.888c0,.567-.094,1.039-.378,1.228a2.548,2.548,0,0,1-1.416.378H126.372a5.074,5.074,0,0,1-.472-1.983,1.379,1.379,0,0,1,.378-1.133A1.6,1.6,0,0,1,127.411,49H129.2c.094-2.455.094-5.288.094-8.593,0-4.721-.189-7.459-.661-8.309a2.488,2.488,0,0,0-2.361-1.322A4.227,4.227,0,0,1,125.9,28.883Z" transform="translate(-104.088 -16.797)"/><path class="a" d="M161.053,48.493h2.927a3.992,3.992,0,0,1,.472,1.888c0,.567-.094,1.039-.378,1.228a2.548,2.548,0,0,1-1.416.378H150.572A5.074,5.074,0,0,1,150.1,50a1.379,1.379,0,0,1,.378-1.133,1.6,1.6,0,0,1,1.133-.378h2.077c.094-2.172.094-4.438.094-6.893,0-3.683,0-6.138-.094-7.365a12.343,12.343,0,0,0-.378-2.644c-.189-.567-.472-.944-.944-1.039a4.712,4.712,0,0,0-1.794-.189,3.183,3.183,0,0,1-.472-1.605,1.518,1.518,0,0,1,1.133-1.7,24.589,24.589,0,0,1,4.721-.283,28.222,28.222,0,0,1,3.682.189c.661.094,1.039.378,1.133.755a7.664,7.664,0,0,1,.094,1.605V41.694C160.959,44.055,160.959,46.321,161.053,48.493Zm-4.627-25.211a5.139,5.139,0,0,1-3.3-.85,3.13,3.13,0,0,1-1.039-2.455,3.49,3.49,0,0,1,1.322-2.738,5.359,5.359,0,0,1,3.682-1.039,4.726,4.726,0,0,1,3.4.944,3.069,3.069,0,0,1,1.039,2.361,3.4,3.4,0,0,1-1.227,2.738A5.937,5.937,0,0,1,156.426,23.282Z" transform="translate(-105.438 -16.2)"/><path class="a" d="M193.211,37.092c0,5.949,0,9.914.094,11.9h2.738a3.992,3.992,0,0,1,.472,1.888c0,.567-.094,1.039-.378,1.228a2.548,2.548,0,0,1-1.416.378H184.241a5.075,5.075,0,0,1-.472-1.983,1.335,1.335,0,0,1,1.511-1.511h.661c.094-2.927.094-5.854.094-8.687,0-3.4-.283-5.76-.944-6.893a3.281,3.281,0,0,0-3.022-1.794,3.56,3.56,0,0,0-2.361,1.039c-.661.661-1.039,2.172-1.039,4.343v5.1c0,2.077,0,4.438.094,6.893h1.794a3.992,3.992,0,0,1,.472,1.888c0,.567-.094,1.039-.378,1.228a2.548,2.548,0,0,1-1.416.378h-10.67a5.074,5.074,0,0,1-.472-1.983,1.379,1.379,0,0,1,.378-1.133,1.6,1.6,0,0,1,1.133-.378H171.4c.094-2.738.094-5.665.094-8.593,0-4.721-.189-7.459-.661-8.309a2.488,2.488,0,0,0-2.361-1.322A5.074,5.074,0,0,1,168,28.783a1.2,1.2,0,0,1,.661-1.227c.472-.189,3.21-.378,8.309-.472a14.84,14.84,0,0,1,0,2.927,22.56,22.56,0,0,1,5.1-2.455,15.563,15.563,0,0,1,4.155-.755,7.814,7.814,0,0,1,3.777.755,4.748,4.748,0,0,1,1.888,1.983,18.351,18.351,0,0,1,4.627-2.077,14.392,14.392,0,0,1,4.06-.661,7.233,7.233,0,0,1,5,1.605c1.133,1.039,1.7,3.116,1.7,6.326,0,8.215.189,12.747.472,13.314.283.661.944.944,1.983.944a4.227,4.227,0,0,1,.378,1.888,1.3,1.3,0,0,1-.567,1.228,5.893,5.893,0,0,1-2.266.283c-2.738,0-4.438,0-5.193-.094a1.876,1.876,0,0,1-1.511-.85,4.856,4.856,0,0,1-.378-2.361V40.208c0-3.4-.283-5.76-.944-6.893a3.281,3.281,0,0,0-3.022-1.794,3.56,3.56,0,0,0-2.361,1.039A11.981,11.981,0,0,0,193.211,37.092Z" transform="translate(-106.436 -16.791)"/><path class="a" d="M240.022,41.369A27.65,27.65,0,0,0,240.4,47.6a1.6,1.6,0,0,0,1.888,1.039,4.963,4.963,0,0,1,.378,1.605c0,.85-.567,1.416-1.794,1.888a9.4,9.4,0,0,1-3.4.661,2.839,2.839,0,0,1-1.7-.378,12.662,12.662,0,0,1-1.511-1.794,25.059,25.059,0,0,1-4.532,1.794,17.644,17.644,0,0,1-4.627.661,7.231,7.231,0,0,1-5.1-1.7c-1.228-1.133-1.794-3.4-1.794-6.893,0-5.193,0-8.4-.094-9.631a12.343,12.343,0,0,0-.378-2.644c-.189-.567-.472-.944-.85-1.039a3.225,3.225,0,0,0-1.416-.189A3.183,3.183,0,0,1,215,29.377a1.678,1.678,0,0,1,1.416-1.605,16.552,16.552,0,0,1,4.438-.472,12.38,12.38,0,0,1,3.116.283,2.157,2.157,0,0,1,1.133.755,13.631,13.631,0,0,1,.189,3.588V40.9c0,3.3.283,5.382.944,6.421a2.932,2.932,0,0,0,2.644,1.511,5.119,5.119,0,0,0,2.361-.567,2.3,2.3,0,0,0,1.322-1.511,12.6,12.6,0,0,0,.283-3.3v-8.5a8.885,8.885,0,0,0-.283-2.644c-.189-.567-.378-.944-.661-1.039a2.61,2.61,0,0,0-1.322-.189,3.183,3.183,0,0,1-.472-1.605,1.678,1.678,0,0,1,1.416-1.605,14.16,14.16,0,0,1,3.966-.472,12.38,12.38,0,0,1,3.116.283,1.66,1.66,0,0,1,1.133.944,15.514,15.514,0,0,1,.189,3.683v9.065Z" transform="translate(-109.057 -16.819)"/><path class="a" d="M248.1,28.883a1.2,1.2,0,0,1,.661-1.228c.472-.189,3.21-.378,8.309-.472a14.842,14.842,0,0,1,0,2.927,24.542,24.542,0,0,1,5.76-2.549,16.935,16.935,0,0,1,4.532-.661,3.281,3.281,0,0,1,1.227.189,1.364,1.364,0,0,1,.283,1.039,10.839,10.839,0,0,1-.378,2.927,3.4,3.4,0,0,1-1.039,1.888,5.293,5.293,0,0,1-1.983.661,4.661,4.661,0,0,1-1.511.094,8.367,8.367,0,0,1-1.416-1.7,3.412,3.412,0,0,0-2.833,1.322c-.661.944-1.039,3.21-1.039,6.893,0,3.4,0,6.326.094,8.781h3.966a3.992,3.992,0,0,1,.472,1.888c0,.567-.094,1.039-.378,1.228a2.548,2.548,0,0,1-1.416.378H248.572a5.074,5.074,0,0,1-.472-1.983,1.379,1.379,0,0,1,.378-1.133A1.6,1.6,0,0,1,249.611,49H251.4c.094-2.455.094-5.288.094-8.593,0-4.721-.189-7.459-.661-8.309a2.488,2.488,0,0,0-2.361-1.322A4.228,4.228,0,0,1,248.1,28.883Z" transform="translate(-110.903 -16.797)"/><path class="a" d="M273.822,27.254h1.794l2.455-7.554a17.574,17.574,0,0,1,2.361.944,4.277,4.277,0,0,1,1.7,1.416c.378.567.567,1.794.567,3.871v1.322h8.5a5.6,5.6,0,0,1,.472,2.172,1.708,1.708,0,0,1-.378,1.322,2.09,2.09,0,0,1-1.322.283h-7.176v9.914a15.641,15.641,0,0,0,.755,5.854A2.56,2.56,0,0,0,286,48.4a9.182,9.182,0,0,0,4.155-1.228,3.842,3.842,0,0,1,.755,2.266,2.211,2.211,0,0,1-1.794,2.266,20.016,20.016,0,0,1-5.571.567q-4.107,0-5.949-1.7c-1.228-1.133-1.794-3.21-1.794-6.421V39.812c0-2.738-.094-5.76-.283-8.876h-2.549a6,6,0,0,1-.472-2.172,1.6,1.6,0,0,1,.378-1.227C272.972,27.348,273.35,27.254,273.822,27.254Z" transform="translate(-112.264 -16.395)"/><path class="a" d="M305.953,48.493h2.927a3.993,3.993,0,0,1,.472,1.888c0,.567-.094,1.039-.378,1.228a2.548,2.548,0,0,1-1.416.378H295.472A5.076,5.076,0,0,1,295,50a1.379,1.379,0,0,1,.378-1.133,1.6,1.6,0,0,1,1.133-.378h2.077c.094-2.172.094-4.438.094-6.893,0-3.683,0-6.138-.094-7.365a12.346,12.346,0,0,0-.378-2.644c-.189-.567-.472-.944-.944-1.039a4.711,4.711,0,0,0-1.794-.189A3.183,3.183,0,0,1,295,28.758a1.518,1.518,0,0,1,1.133-1.7,24.589,24.589,0,0,1,4.721-.283,28.22,28.22,0,0,1,3.682.189c.661.094,1.039.378,1.133.755a7.659,7.659,0,0,1,.094,1.605V41.694C305.859,44.055,305.953,46.321,305.953,48.493Zm-4.532-25.211a5.139,5.139,0,0,1-3.3-.85,3.13,3.13,0,0,1-1.039-2.455,3.49,3.49,0,0,1,1.322-2.738,5.359,5.359,0,0,1,3.682-1.039,4.725,4.725,0,0,1,3.4.944A3.069,3.069,0,0,1,306.52,19.5a3.4,3.4,0,0,1-1.228,2.738A6.12,6.12,0,0,1,301.421,23.282Z" transform="translate(-113.518 -16.2)"/><path class="a" d="M314.749,49.112c.85-1.133,3.022-4.249,6.421-9.253l-3.4-5.1c-.755-1.133-1.322-1.983-1.794-2.549a2.567,2.567,0,0,0-1.322-1.039,3.932,3.932,0,0,0-1.605-.189,3.719,3.719,0,0,1-.472-1.888,1.514,1.514,0,0,1,1.322-1.511,32.007,32.007,0,0,1,5.477-.283,8.323,8.323,0,0,1,1.983.283,2.316,2.316,0,0,1,1.605,1.133,24.352,24.352,0,0,1,1.511,3.116,49.738,49.738,0,0,0,3.022,5.477,49.074,49.074,0,0,0,3.21-5.854h-1.133a4.3,4.3,0,0,1-.472-1.888,1.96,1.96,0,0,1,.378-1.416,1.631,1.631,0,0,1,1.228-.472h7.554a3.906,3.906,0,0,1,.472,1.794,2.052,2.052,0,0,1-.472,1.511,2.081,2.081,0,0,1-1.511.378h-.189a105.034,105.034,0,0,0-6.421,8.876c3.4,5.193,5.382,7.932,5.854,8.309a3.326,3.326,0,0,0,2.172.567,2.7,2.7,0,0,1,.378,1.605,1.388,1.388,0,0,1-.944,1.511,11.2,11.2,0,0,1-2.927.283c-2.266,0-3.682,0-4.343-.094a2.226,2.226,0,0,1-1.511-.85q-.566-.708-5.1-8.781a29.873,29.873,0,0,0-3.21,6.326h1.7A3.992,3.992,0,0,1,322.681,51c0,.567-.094,1.039-.378,1.228a2.548,2.548,0,0,1-1.416.378h-8.215a5.075,5.075,0,0,1-.472-1.983,1.379,1.379,0,0,1,.378-1.133,1.6,1.6,0,0,1,1.133-.378h1.039Z" transform="translate(-114.478 -16.819)"/><g transform="translate(31.537 47.117)"><path class="b" d="M136.2,74.426V66.4h2.455a3.256,3.256,0,0,1,3.494,3.494v1.133a3.418,3.418,0,0,1-.944,2.549,3.5,3.5,0,0,1-2.644.944H136.2Zm1.039-7.271v6.421h1.322a2.343,2.343,0,0,0,1.888-.755,3.041,3.041,0,0,0,.661-1.888V69.8a2.66,2.66,0,0,0-.661-1.983,2.351,2.351,0,0,0-1.794-.661h-1.416Z" transform="translate(-136.2 -66.117)"/><path class="b" d="M149.021,70.649h-3.683v2.927h4.249v.85H144.3V66.4h5.288v.85h-4.249V69.8h3.683Z" transform="translate(-136.652 -66.117)"/><path class="b" d="M153.71,72.438l.189.661h0l.189-.661L156.26,66.3h1.133l-3.022,8.026h-.85L150.5,66.3h1.133Z" transform="translate(-136.997 -66.111)"/><path class="b" d="M163.816,70.649h-3.682v2.927h4.249v.85H159V66.4h5.288v.85h-4.249V69.8h3.682v.85Z" transform="translate(-137.471 -66.117)"/><path class="b" d="M167.039,73.576h3.871v.85H166V66.4h1.039Z" transform="translate(-137.862 -66.117)"/><path class="b" d="M178.321,71.016a3.344,3.344,0,0,1-.944,2.455,3.132,3.132,0,0,1-2.361.944,2.8,2.8,0,0,1-2.266-.944,3.7,3.7,0,0,1-.85-2.455V69.6a3.7,3.7,0,0,1,.85-2.455,2.8,2.8,0,0,1,2.266-.944,3,3,0,0,1,2.361.944,3.775,3.775,0,0,1,.944,2.455ZM177.282,69.6a2.722,2.722,0,0,0-.567-1.794,2.083,2.083,0,0,0-3.21,0,2.722,2.722,0,0,0-.567,1.794v1.416a3.19,3.19,0,0,0,.567,1.888,1.775,1.775,0,0,0,1.605.755,2.017,2.017,0,0,0,1.605-.755,3,3,0,0,0,.567-1.888Z" transform="translate(-138.191 -66.106)"/><path class="b" d="M181.539,71.116v3.21H180.5V66.3h3.022a2.66,2.66,0,0,1,1.983.661,2.765,2.765,0,0,1,0,3.588,2.66,2.66,0,0,1-1.983.661h-1.983Zm0-.85h1.983a1.868,1.868,0,0,0,1.322-.472,1.888,1.888,0,0,0,0-2.266,1.712,1.712,0,0,0-1.322-.472h-1.983Z" transform="translate(-138.67 -66.111)"/><path class="b" d="M192.921,70.649h-3.682v2.927h4.249v.85H188.2V66.4h5.288v.85h-4.249V69.8h3.682Z" transform="translate(-139.1 -66.117)"/><path class="b" d="M196.239,70.832v3.494H195.2V66.3h2.927a2.925,2.925,0,0,1,1.983.567,2.343,2.343,0,0,1,.661,1.7,1.42,1.42,0,0,1-.378,1.039,3.7,3.7,0,0,1-.944.755,1.868,1.868,0,0,1,.944.661,2.362,2.362,0,0,1,.283,1.228V73a1.4,1.4,0,0,0,.094.661,2.065,2.065,0,0,0,.283.472v.094h-1.039a.571.571,0,0,1-.283-.567c0-.283-.094-.472-.094-.755v-.755a1.177,1.177,0,0,0-.378-1.039,1.98,1.98,0,0,0-1.039-.378h-1.983Zm0-.755h1.794a1.96,1.96,0,0,0,1.416-.378,1.379,1.379,0,0,0,.378-1.133,1.177,1.177,0,0,0-.378-1.039,2.2,2.2,0,0,0-1.322-.378h-1.888Z" transform="translate(-139.49 -66.111)"/><path class="b" d="M211.537,67.15h-2.549V74.42h-1.039V67.15H205.4V66.3h6.138Z" transform="translate(-140.059 -66.111)"/><path class="b" d="M219.221,71.016a3.344,3.344,0,0,1-.944,2.455,3.132,3.132,0,0,1-2.361.944,2.8,2.8,0,0,1-2.266-.944,3.7,3.7,0,0,1-.85-2.455V69.6a3.7,3.7,0,0,1,.85-2.455,2.8,2.8,0,0,1,2.266-.944,3,3,0,0,1,2.361.944,3.775,3.775,0,0,1,.944,2.455ZM218.182,69.6a2.722,2.722,0,0,0-.567-1.794,2.083,2.083,0,0,0-3.21,0,2.906,2.906,0,0,0-.567,1.794v1.416a3.19,3.19,0,0,0,.567,1.888,1.775,1.775,0,0,0,1.605.755,2.017,2.017,0,0,0,1.605-.755,3,3,0,0,0,.567-1.888Z" transform="translate(-140.472 -66.106)"/><path class="b" d="M227.621,71.016a3.344,3.344,0,0,1-.944,2.455,3.132,3.132,0,0,1-2.361.944,2.8,2.8,0,0,1-2.266-.944,3.7,3.7,0,0,1-.85-2.455V69.6a3.7,3.7,0,0,1,.85-2.455,2.8,2.8,0,0,1,2.266-.944,3,3,0,0,1,2.361.944,3.775,3.775,0,0,1,.944,2.455ZM226.582,69.6a2.722,2.722,0,0,0-.567-1.794,2.083,2.083,0,0,0-3.21,0,2.905,2.905,0,0,0-.567,1.794v1.416a3.19,3.19,0,0,0,.567,1.888,1.775,1.775,0,0,0,1.605.755,2.017,2.017,0,0,0,1.605-.755,3,3,0,0,0,.567-1.888Z" transform="translate(-140.94 -66.106)"/><path class="b" d="M230.839,73.576h3.871v.85H229.8V66.4h1.039Z" transform="translate(-141.42 -66.117)"/><path class="b" d="M240.71,72.332a1.212,1.212,0,0,0-.378-.944,3.236,3.236,0,0,0-1.511-.661,4.831,4.831,0,0,1-1.983-.85,1.761,1.761,0,0,1-.661-1.511,2.162,2.162,0,0,1,.755-1.605,2.66,2.66,0,0,1,1.983-.661,2.939,2.939,0,0,1,2.077.755,2.364,2.364,0,0,1,.755,1.7H240.71a1.564,1.564,0,0,0-.472-1.133,1.955,1.955,0,0,0-1.416-.472,1.846,1.846,0,0,0-1.322.378,1.311,1.311,0,0,0-.472.944.992.992,0,0,0,.472.85,5.426,5.426,0,0,0,1.605.661,4.855,4.855,0,0,1,1.983.944,1.879,1.879,0,0,1,.661,1.511,2.017,2.017,0,0,1-.755,1.605,3.405,3.405,0,0,1-2.077.661,3.485,3.485,0,0,1-2.172-.661,2.045,2.045,0,0,1-.944-1.794h1.039a1.4,1.4,0,0,0,.567,1.227,2.276,2.276,0,0,0,1.416.378,1.846,1.846,0,0,0,1.322-.378A1.439,1.439,0,0,0,240.71,72.332Z" transform="translate(-141.754 -66.1)"/><path class="b" d="M247.639,71.116v3.21H246.6V66.3h3.022a2.66,2.66,0,0,1,1.983.661,2.765,2.765,0,0,1,0,3.588,2.66,2.66,0,0,1-1.983.661h-1.983Zm0-.85h1.983a1.868,1.868,0,0,0,1.322-.472,1.889,1.889,0,0,0,0-2.266,1.712,1.712,0,0,0-1.322-.472h-1.983Z" transform="translate(-142.357 -66.111)"/><path class="b" d="M255.339,73.576h3.871v.85H254.3V66.4h1.039Z" transform="translate(-142.786 -66.117)"/><path class="b" d="M265.393,72.254h-3.4l-.755,2.172H260.2l3.116-8.026h.85l3.022,8.026h-1.039Zm-3.116-.85h2.833l-1.416-3.777Z" transform="translate(-143.115 -66.117)"/><path class="b" d="M273.538,67.15h-2.549V74.42h-1.039V67.15H267.4V66.3h6.138v.85Z" transform="translate(-143.517 -66.111)"/><path class="b" d="M280.021,70.838h-3.682v3.588H275.3V66.4h5.288v.85h-4.249v2.833h3.682Z" transform="translate(-143.957 -66.117)"/><path class="b" d="M288.421,71.016a3.344,3.344,0,0,1-.944,2.455,3.132,3.132,0,0,1-2.361.944,2.8,2.8,0,0,1-2.266-.944,3.7,3.7,0,0,1-.85-2.455V69.6a3.7,3.7,0,0,1,.85-2.455,2.8,2.8,0,0,1,2.266-.944,3,3,0,0,1,2.361.944,3.775,3.775,0,0,1,.944,2.455ZM287.382,69.6a2.722,2.722,0,0,0-.567-1.794,2.083,2.083,0,0,0-3.21,0,2.905,2.905,0,0,0-.566,1.794v1.416a3.191,3.191,0,0,0,.566,1.888,1.775,1.775,0,0,0,1.605.755,2.017,2.017,0,0,0,1.605-.755,3,3,0,0,0,.567-1.888Z" transform="translate(-144.331 -66.106)"/><path class="b" d="M291.639,70.832v3.494H290.6V66.3h2.927a2.925,2.925,0,0,1,1.983.567,2.343,2.343,0,0,1,.661,1.7,1.42,1.42,0,0,1-.378,1.039,3.7,3.7,0,0,1-.944.755,1.868,1.868,0,0,1,.944.661,2.362,2.362,0,0,1,.283,1.228V73a1.4,1.4,0,0,0,.094.661,2.065,2.065,0,0,0,.283.472v.094h-1.039a.571.571,0,0,1-.283-.567c0-.283-.094-.472-.094-.755v-.755a1.177,1.177,0,0,0-.378-1.039,1.98,1.98,0,0,0-1.039-.378h-1.983Zm0-.755h1.794a1.96,1.96,0,0,0,1.416-.378,1.379,1.379,0,0,0,.378-1.133,1.177,1.177,0,0,0-.378-1.039,2.2,2.2,0,0,0-1.322-.378h-1.888Z" transform="translate(-144.81 -66.111)"/><path class="b" d="M299.927,66.3l2.644,6.61,2.644-6.61h1.322v8.026H305.5v-3.21l.094-3.4h0l-2.644,6.61h-.661l-2.644-6.61h0l.094,3.4v3.21H298.7V66.3Z" transform="translate(-145.262 -66.111)"/></g></g><g transform="translate(69.241)"><path class="b" d="M84.785,68.093a8.593,8.593,0,1,0-8.592,8.593A8.624,8.624,0,0,0,84.785,68.093Z" transform="translate(-3.77 -3.318)"/><path class="b" d="M13.293,59.4a8.593,8.593,0,1,0,8.593,8.593A8.624,8.624,0,0,0,13.293,59.4Z" transform="translate(-0.262 -3.313)"/><path class="b" d="M44.093,21.985A8.593,8.593,0,1,0,35.5,13.393,8.624,8.624,0,0,0,44.093,21.985Z" transform="translate(-1.98 -0.268)"/><path class="a" d="M26.34,19.923a16.7,16.7,0,0,1,3.871-1.983A13.129,13.129,0,0,0,42.3,26.155a13,13,0,0,0,13.03-13.03,12.758,12.758,0,1,0-25.494.283h0a15.657,15.657,0,0,0-5.477,2.738A36.741,36.741,0,0,0,6.7,44.19a1.863,1.863,0,0,0,1.794,2.077h0A2.648,2.648,0,0,0,11.137,44,32.013,32.013,0,0,1,26.34,19.923ZM42.486,4.438a8.622,8.622,0,0,1,2.077,17,8.69,8.69,0,0,1-10.67-8.4A8.563,8.563,0,0,1,42.486,4.438Z" transform="translate(-0.373)"/><path class="a" d="M42.679,83.044a32.682,32.682,0,0,1-19.64-6.7,13.291,13.291,0,0,0,3.116-8.309A13,13,0,0,0,13.125,55a12.984,12.984,0,1,0-.094,25.966,12.642,12.642,0,0,0,6.421-1.794,35.914,35.914,0,0,0,23.134,8.215A35.04,35.04,0,0,0,55.8,84.838a2.558,2.558,0,0,0,1.416-3.494h0a1.758,1.758,0,0,0-2.361-.85A29.655,29.655,0,0,1,42.679,83.044ZM13.6,76.434a8.62,8.62,0,1,1,7.837-6.8A8.62,8.62,0,0,1,13.6,76.434Z" transform="translate(0 -3.067)"/><path class="a" d="M82.257,54.393a39.343,39.343,0,0,0,.378-5.76A36.677,36.677,0,0,0,67.621,19.078a1.977,1.977,0,0,0-2.738.472h0a2.566,2.566,0,0,0,.661,3.494A32.112,32.112,0,0,1,78.2,48.538a33.546,33.546,0,0,1-.283,4.343,13.945,13.945,0,0,0-1.983-.094,12.949,12.949,0,1,0,6.326,1.605Zm-14.73,9.348a8.622,8.622,0,1,1,8.4,10.67A8.618,8.618,0,0,1,67.527,63.741Z" transform="translate(-3.508 -1.044)"/></g></g></g></svg>