<?xml version="1.0" encoding="utf-8"?>
<!-- Generator: Adobe Illustrator 21.0.2, SVG Export Plug-In . SVG Version: 6.00 Build 0)  -->
<svg version="1.1" id="Camada_1" xmlns="http://www.w3.org/2000/svg" xmlns:xlink="http://www.w3.org/1999/xlink" x="0px" y="0px"
	 viewBox="0 0 352 98" style="enable-background:new 0 0 352 98;" xml:space="preserve">
<style type="text/css">
	.st0{fill:#232328;}
	.st1{fill:#674CD8;}
	.st2{fill:#FFFFFF;}
	.st3{fill:#F2F2F2;}
	.st4{fill:#D9D8D7;}
	.st5{fill:#386FF9;}
	.st6{fill:#F7DD43;}
	.st7{opacity:0.75;}
</style>
<g>
	<g>
		<path class="st0" d="M110.6,34.2h1.9l2.6-8c0.9,0.3,1.7,0.6,2.5,1c0.8,0.4,1.4,0.9,1.8,1.5c0.4,0.6,0.6,1.9,0.6,4.1v1.4h9
			c0.3,0.7,0.5,1.5,0.5,2.3c0,0.7-0.1,1.1-0.4,1.4c-0.2,0.2-0.7,0.3-1.4,0.3H120v10.5c0,3.1,0.3,5.1,0.8,6.2
			c0.5,1.1,1.4,1.7,2.6,1.7c1.2,0,2.7-0.4,4.4-1.3c0.5,0.7,0.8,1.5,0.8,2.4c0,1.2-0.6,2-1.9,2.4c-1.3,0.4-3.2,0.6-5.9,0.6
			c-2.9,0-5-0.6-6.3-1.8c-1.3-1.2-1.9-3.4-1.9-6.8v-4.6c0-2.9-0.1-6.1-0.3-9.4h-2.7c-0.3-0.8-0.5-1.5-0.5-2.3c0-0.6,0.1-1,0.4-1.3
			C109.6,34.3,110,34.2,110.6,34.2z"/>
		<path class="st0" d="M132.3,35.5c0-0.6,0.2-1.1,0.7-1.3c0.5-0.2,3.4-0.4,8.8-0.5c0.1,0.7,0.1,1.8,0,3.1c2.2-1.3,4.3-2.2,6.1-2.7
			c1.8-0.5,3.4-0.7,4.8-0.7c0.6,0,1.1,0.1,1.3,0.2c0.2,0.2,0.3,0.5,0.3,1.1c0,1-0.1,2-0.4,3.1c-0.3,1.1-0.7,1.7-1.1,2
			c-0.4,0.3-1.1,0.5-2.1,0.7c-0.9,0.1-1.5,0.2-1.6,0.1c-0.2-0.1-0.7-0.7-1.5-1.8c-1.3,0-2.3,0.5-3,1.4c-0.7,1-1.1,3.4-1.1,7.3
			c0,3.6,0,6.7,0.1,9.3h4.2c0.3,0.6,0.5,1.2,0.5,2c0,0.6-0.1,1.1-0.4,1.3c-0.3,0.2-0.8,0.4-1.5,0.4h-13.6c-0.3-0.7-0.5-1.4-0.5-2.1
			c0-0.6,0.1-0.9,0.4-1.2c0.2-0.2,0.6-0.4,1.2-0.4h1.9c0.1-2.6,0.1-5.6,0.1-9.1c0-5-0.2-7.9-0.7-8.8c-0.5-0.9-1.3-1.4-2.5-1.4
			C132.5,36.9,132.3,36.2,132.3,35.5z"/>
		<path class="st0" d="M168.1,56.9h3.1c0.3,0.6,0.5,1.2,0.5,2c0,0.6-0.1,1.1-0.4,1.3c-0.3,0.2-0.8,0.4-1.5,0.4H157
			c-0.3-0.7-0.5-1.4-0.5-2.1c0-0.6,0.1-0.9,0.4-1.2c0.2-0.2,0.6-0.4,1.2-0.4h2.2c0.1-2.3,0.1-4.7,0.1-7.3c0-3.9,0-6.5-0.1-7.8
			c-0.1-1.3-0.2-2.2-0.4-2.8c-0.2-0.6-0.5-1-1-1.1c-0.4-0.2-1.1-0.2-1.9-0.2c-0.3-0.5-0.5-1.1-0.5-1.7c0-1,0.4-1.6,1.2-1.8
			c0.8-0.2,2.5-0.3,5-0.3c1.9,0,3.2,0.1,3.9,0.2c0.7,0.1,1.1,0.4,1.2,0.8c0.1,0.4,0.1,1,0.1,1.7v13.1C168,52.2,168,54.6,168.1,56.9z
			 M163.3,30.2c-1.6,0-2.8-0.3-3.5-0.9c-0.7-0.6-1.1-1.5-1.1-2.6c0-1.2,0.5-2.1,1.4-2.9c0.9-0.8,2.2-1.1,3.9-1.1
			c1.7,0,2.9,0.3,3.6,1c0.7,0.6,1.1,1.5,1.1,2.5c0,1.2-0.4,2.1-1.3,2.9C166.5,29.8,165.1,30.2,163.3,30.2z"/>
		<path class="st0" d="M201.1,44.2c0,6.3,0,10.5,0.1,12.6h2.9c0.3,0.6,0.5,1.2,0.5,2c0,0.6-0.1,1.1-0.4,1.3
			c-0.3,0.2-0.8,0.4-1.5,0.4h-11.1c-0.3-0.7-0.5-1.4-0.5-2.1c0-0.6,0.1-0.9,0.4-1.2c0.2-0.2,0.6-0.4,1.2-0.4h0.7
			c0.1-3.1,0.1-6.2,0.1-9.2c0-3.6-0.3-6.1-1-7.3c-0.7-1.2-1.7-1.9-3.2-1.9c-0.9,0-1.7,0.4-2.5,1.1c-0.7,0.7-1.1,2.3-1.1,4.6v5.4
			c0,2.2,0,4.7,0.1,7.3h1.9c0.3,0.6,0.5,1.2,0.5,2c0,0.6-0.1,1.1-0.4,1.3c-0.3,0.2-0.8,0.4-1.5,0.4h-11.3c-0.3-0.7-0.5-1.4-0.5-2.1
			c0-0.6,0.1-0.9,0.4-1.2c0.2-0.2,0.6-0.4,1.2-0.4h1.9c0.1-2.9,0.1-6,0.1-9.1c0-5-0.2-7.9-0.7-8.8c-0.5-0.9-1.3-1.4-2.5-1.4
			c-0.3-0.7-0.5-1.4-0.5-2.1c0-0.6,0.2-1.1,0.7-1.3c0.5-0.2,3.4-0.4,8.8-0.5c0.1,0.7,0.1,1.8,0,3.1c1.9-1.2,3.8-2.1,5.4-2.6
			c1.7-0.5,3.2-0.8,4.4-0.8c1.8,0,3.1,0.3,4,0.8c0.9,0.5,1.6,1.3,2,2.1c1.6-1,3.2-1.7,4.9-2.2c1.7-0.5,3.1-0.7,4.3-0.7
			c2.3,0,4.1,0.6,5.3,1.7c1.2,1.1,1.8,3.3,1.8,6.7c0,8.7,0.2,13.5,0.5,14.1c0.3,0.7,1,1,2.1,1c0.3,0.6,0.4,1.3,0.4,2
			c0,0.6-0.2,1.1-0.6,1.3c-0.4,0.2-1.2,0.3-2.4,0.3c-2.9,0-4.7,0-5.5-0.1c-0.8-0.1-1.3-0.4-1.6-0.9c-0.3-0.5-0.4-1.3-0.4-2.5v-9.4
			c0-3.6-0.3-6.1-1-7.3c-0.7-1.2-1.7-1.9-3.2-1.9c-0.9,0-1.7,0.4-2.5,1.1C201.5,40.3,201.1,41.9,201.1,44.2z"/>
		<path class="st0" d="M248,48.7c0,3.5,0.1,5.7,0.4,6.6c0.3,0.8,0.9,1.2,2,1.1c0.2,0.6,0.4,1.1,0.4,1.7c0,0.9-0.6,1.5-1.9,2
			c-1.3,0.5-2.5,0.7-3.6,0.7c-0.8,0-1.4-0.1-1.8-0.4c-0.3-0.3-0.9-0.9-1.6-1.9c-1.7,0.8-3.2,1.5-4.8,1.9c-1.5,0.4-3.1,0.7-4.9,0.7
			c-2.3,0-4.1-0.6-5.4-1.8c-1.3-1.2-1.9-3.6-1.9-7.3c0-5.5,0-8.9-0.1-10.2c-0.1-1.3-0.2-2.2-0.4-2.8c-0.2-0.6-0.5-1-0.9-1.1
			c-0.4-0.2-0.9-0.2-1.5-0.2c-0.3-0.5-0.5-1.1-0.5-1.7c0-0.8,0.5-1.4,1.5-1.7c1-0.3,2.6-0.5,4.7-0.5c1.5,0,2.6,0.1,3.3,0.3
			c0.6,0.2,1,0.5,1.2,0.8c0.2,0.4,0.2,1.6,0.2,3.8V48c0,3.5,0.3,5.7,1,6.8c0.7,1.1,1.6,1.6,2.8,1.6c0.9,0,1.7-0.2,2.5-0.6
			c0.8-0.4,1.2-0.9,1.4-1.6c0.2-0.6,0.3-1.8,0.3-3.5c0-4.7,0-7.7,0-9c0-1.3-0.1-2.2-0.3-2.8c-0.2-0.6-0.4-1-0.7-1.1
			c-0.3-0.2-0.8-0.2-1.4-0.2c-0.3-0.5-0.5-1.1-0.5-1.7c0-0.8,0.5-1.4,1.5-1.7c1-0.3,2.4-0.5,4.2-0.5c1.5,0,2.6,0.1,3.3,0.3
			c0.6,0.2,1,0.5,1.2,1c0.2,0.5,0.2,1.8,0.2,3.9V48.7z"/>
		<path class="st0" d="M254.5,35.5c0-0.6,0.2-1.1,0.7-1.3c0.5-0.2,3.4-0.4,8.8-0.5c0.1,0.7,0.1,1.8,0,3.1c2.2-1.3,4.3-2.2,6.1-2.7
			c1.8-0.5,3.4-0.7,4.8-0.7c0.6,0,1.1,0.1,1.3,0.2c0.2,0.2,0.3,0.5,0.3,1.1c0,1-0.1,2-0.4,3.1c-0.3,1.1-0.7,1.7-1.1,2
			c-0.4,0.3-1.1,0.5-2.1,0.7c-0.9,0.1-1.5,0.2-1.6,0.1c-0.2-0.1-0.7-0.7-1.5-1.8c-1.3,0-2.3,0.5-3,1.4c-0.7,1-1.1,3.4-1.1,7.3
			c0,3.6,0,6.7,0.1,9.3h4.2c0.3,0.6,0.5,1.2,0.5,2c0,0.6-0.1,1.1-0.4,1.3c-0.3,0.2-0.8,0.4-1.5,0.4H255c-0.3-0.7-0.5-1.4-0.5-2.1
			c0-0.6,0.1-0.9,0.4-1.2c0.2-0.2,0.6-0.4,1.2-0.4h1.9c0.1-2.6,0.1-5.6,0.1-9.1c0-5-0.2-7.9-0.7-8.8c-0.5-0.9-1.3-1.4-2.5-1.4
			C254.6,36.9,254.5,36.2,254.5,35.5z"/>
		<path class="st0" d="M280.4,34.2h1.9l2.6-8c0.9,0.3,1.7,0.6,2.5,1c0.8,0.4,1.4,0.9,1.8,1.5c0.4,0.6,0.6,1.9,0.6,4.1v1.4h9
			c0.3,0.7,0.5,1.5,0.5,2.3c0,0.7-0.1,1.1-0.4,1.4c-0.2,0.2-0.7,0.3-1.4,0.3h-7.6v10.5c0,3.1,0.3,5.1,0.8,6.2
			c0.5,1.1,1.4,1.7,2.6,1.7c1.2,0,2.7-0.4,4.4-1.3c0.5,0.7,0.8,1.5,0.8,2.4c0,1.2-0.6,2-1.9,2.4c-1.3,0.4-3.2,0.6-5.9,0.6
			c-2.9,0-5-0.6-6.3-1.8c-1.3-1.2-1.9-3.4-1.9-6.8v-4.6c0-2.9-0.1-6.1-0.3-9.4h-2.7c-0.3-0.8-0.5-1.5-0.5-2.3c0-0.6,0.1-1,0.4-1.3
			C279.4,34.3,279.8,34.2,280.4,34.2z"/>
		<path class="st0" d="M313.1,56.9h3.1c0.3,0.6,0.5,1.2,0.5,2c0,0.6-0.1,1.1-0.4,1.3c-0.3,0.2-0.8,0.4-1.5,0.4H302
			c-0.3-0.7-0.5-1.4-0.5-2.1c0-0.6,0.1-0.9,0.4-1.2c0.2-0.2,0.6-0.4,1.2-0.4h2.2c0.1-2.3,0.1-4.7,0.1-7.3c0-3.9,0-6.5-0.1-7.8
			c-0.1-1.3-0.2-2.2-0.4-2.8c-0.2-0.6-0.5-1-1-1.1c-0.4-0.2-1.1-0.2-1.9-0.2c-0.3-0.5-0.5-1.1-0.5-1.7c0-1,0.4-1.6,1.2-1.8
			c0.8-0.2,2.5-0.3,5-0.3c1.9,0,3.2,0.1,3.9,0.2c0.7,0.1,1.1,0.4,1.2,0.8c0.1,0.4,0.1,1,0.1,1.7v13.1
			C312.9,52.2,313,54.6,313.1,56.9z M308.2,30.2c-1.6,0-2.8-0.3-3.5-0.9c-0.7-0.6-1.1-1.5-1.1-2.6c0-1.2,0.5-2.1,1.4-2.9
			c0.9-0.8,2.2-1.1,3.9-1.1c1.7,0,2.9,0.3,3.6,1c0.7,0.6,1.1,1.5,1.1,2.5c0,1.2-0.4,2.1-1.3,2.9C311.5,29.8,310.1,30.2,308.2,30.2z"
			/>
		<path class="st0" d="M321.4,56.9c0.9-1.2,3.2-4.5,6.8-9.8c-1.6-2.4-2.8-4.2-3.6-5.4c-0.8-1.2-1.4-2.1-1.9-2.7
			c-0.5-0.6-0.9-1-1.4-1.1c-0.4-0.2-1-0.2-1.7-0.2c-0.3-0.5-0.5-1.2-0.5-2c0-0.8,0.5-1.4,1.4-1.6c0.9-0.2,2.8-0.3,5.8-0.3
			c0.6,0,1.3,0.1,2.1,0.3c0.8,0.2,1.4,0.6,1.7,1.2c0.4,0.6,0.9,1.7,1.6,3.3c0.7,1.6,1.8,3.5,3.2,5.8c1.5-2.5,2.7-4.5,3.4-6.2h-1.2
			c-0.3-0.6-0.5-1.3-0.5-2s0.1-1.2,0.4-1.5c0.3-0.3,0.7-0.5,1.3-0.5h8c0.3,0.6,0.5,1.2,0.5,1.9c0,0.8-0.2,1.3-0.5,1.6
			c-0.3,0.3-0.8,0.4-1.6,0.4h-0.2c-2.1,2.6-4.4,5.7-6.8,9.4c3.6,5.5,5.7,8.4,6.2,8.8c0.5,0.4,1.2,0.6,2.3,0.6c0.3,0.4,0.4,1,0.4,1.7
			c0,0.8-0.3,1.4-1,1.6c-0.7,0.2-1.7,0.3-3.1,0.3c-2.4,0-3.9,0-4.6-0.1c-0.7-0.1-1.2-0.4-1.6-0.9c-0.4-0.5-2.2-3.6-5.4-9.3
			c-1.9,3.1-3,5.3-3.4,6.7h1.8c0.3,0.6,0.5,1.2,0.5,2c0,0.6-0.1,1.1-0.4,1.3c-0.3,0.2-0.8,0.4-1.5,0.4h-8.7
			c-0.3-0.7-0.5-1.4-0.5-2.1c0-0.6,0.1-0.9,0.4-1.2c0.2-0.2,0.6-0.4,1.2-0.4H321.4z"/>
	</g>
	<circle class="st1" cx="50.7" cy="49" r="45.7"/>
	<g>
		<polygon class="st2" points="50.8,76.6 37.2,68.7 37.2,53 50.8,60.9 		"/>
		<polygon class="st3" points="50.8,45.2 37.2,53 50.8,60.9 64.4,53 		"/>
		<polygon class="st4" points="50.8,76.6 64.4,68.7 64.4,53 50.8,60.9 		"/>
		<polygon class="st5" points="64.4,53 50.8,45.2 50.8,29.5 64.4,37.3 		"/>
		<polygon class="st3" points="64.4,21.6 50.8,29.5 64.4,37.3 78,29.5 		"/>
		<polygon class="st6" points="64.4,53 78,45.2 78,29.5 64.4,37.3 		"/>
		<g>
			<path class="st3" d="M37.2,53.2C37.2,53.2,37.2,53.2,37.2,53.2l-13.7-7.9c-0.1,0-0.1-0.1-0.1-0.2V29.5c0-0.1,0-0.1,0.1-0.2
				c0.1,0,0.1,0,0.2,0l13.6,7.9c0.1,0,0.1,0.1,0.1,0.2V53C37.4,53.1,37.4,53.1,37.2,53.2C37.3,53.2,37.3,53.2,37.2,53.2z M23.8,45.1
				L37,52.7V37.4l-13.2-7.6L23.8,45.1z"/>
			<path class="st3" d="M37.2,37.5C37.2,37.5,37.2,37.5,37.2,37.5l-13.7-7.9c-0.1,0-0.1-0.1-0.1-0.2c0-0.1,0-0.1,0.1-0.2l13.6-7.9
				c0.1,0,0.1,0,0.2,0l13.6,7.9c0.1,0,0.1,0.1,0.1,0.2c0,0.1,0,0.1-0.1,0.2L37.2,37.5C37.3,37.5,37.3,37.5,37.2,37.5z M24,29.5
				l13.2,7.6l13.2-7.6l-13.2-7.6L24,29.5z"/>
			<path class="st3" d="M50.8,45.3C50.8,45.3,50.8,45.3,50.8,45.3l-1-0.6c-0.1-0.1-0.1-0.2-0.1-0.3c0.1-0.1,0.2-0.1,0.3-0.1l1,0.6
				c0.1,0.1,0.1,0.2,0.1,0.3C51,45.3,50.9,45.3,50.8,45.3z"/>
			<path class="st3" d="M48.2,43.8C48.2,43.8,48.1,43.8,48.2,43.8l-1.8-1c-0.1-0.1-0.1-0.2-0.1-0.3c0.1-0.1,0.2-0.1,0.2-0.1l1.7,1
				c0.1,0.1,0.1,0.2,0.1,0.3C48.3,43.8,48.3,43.8,48.2,43.8z M44.9,41.9C44.8,41.9,44.8,41.9,44.9,41.9l-1.8-1
				C43,40.9,43,40.7,43,40.7c0.1-0.1,0.2-0.1,0.3-0.1l1.7,1c0.1,0.1,0.1,0.2,0.1,0.3C45,41.9,44.9,41.9,44.9,41.9z M41.5,40
				C41.5,40,41.5,40,41.5,40l-1.8-1c-0.1-0.1-0.1-0.2-0.1-0.3c0.1-0.1,0.2-0.1,0.3-0.1l1.7,1c0.1,0.1,0.1,0.2,0.1,0.3
				C41.6,39.9,41.6,40,41.5,40z"/>
			<path class="st3" d="M38.2,38C38.1,38,38.1,38,38.2,38l-1-0.5L36.4,38c-0.1,0.1-0.2,0-0.3-0.1s0-0.2,0.1-0.3l1-0.5
				c0.1,0,0.1,0,0.2,0l1,0.5c0.1,0.1,0.1,0.2,0.1,0.3C38.3,38,38.2,38,38.2,38z"/>
			<path class="st3" d="M26.2,43.8c-0.1,0-0.1,0-0.2-0.1c-0.1-0.1,0-0.2,0.1-0.3l1.7-1c0.1-0.1,0.2,0,0.3,0.1c0.1,0.1,0,0.2-0.1,0.3
				L26.2,43.8C26.3,43.8,26.3,43.8,26.2,43.8z M29.6,41.9c-0.1,0-0.1,0-0.2-0.1c-0.1-0.1,0-0.2,0.1-0.3l1.7-1c0.1-0.1,0.2,0,0.3,0.1
				c0.1,0.1,0,0.2-0.1,0.3L29.6,41.9C29.6,41.9,29.6,41.9,29.6,41.9z M32.9,40c-0.1,0-0.1,0-0.2-0.1c-0.1-0.1,0-0.2,0.1-0.3l1.7-1
				c0.1-0.1,0.2,0,0.2,0.1c0.1,0.1,0,0.2-0.1,0.3L32.9,40C33,40,33,40,32.9,40z"/>
			<path class="st3" d="M23.6,45.3c-0.1,0-0.1,0-0.2-0.1c-0.1-0.1,0-0.2,0.1-0.3l1-0.6c0.1-0.1,0.2,0,0.3,0.1c0.1,0.1,0,0.2-0.1,0.3
				L23.6,45.3C23.7,45.3,23.6,45.3,23.6,45.3z"/>
			<path class="st3" d="M37.2,53.2C37.2,53.2,37.2,53.2,37.2,53.2C37.1,53.1,37,53.1,37,53V37.3c0-0.1,0-0.1,0.1-0.2l13.6-7.9
				c0.1,0,0.1,0,0.2,0c0.1,0,0.1,0.1,0.1,0.2v15.7c0,0.1,0,0.1-0.1,0.2L37.2,53.2C37.3,53.2,37.3,53.2,37.2,53.2z M37.4,37.4v15.3
				l13.2-7.6V29.8L37.4,37.4z"/>
			<path class="st3" d="M37.2,22.9c-0.1,0-0.2-0.1-0.2-0.2v-1.1c0-0.1,0.1-0.2,0.2-0.2c0.1,0,0.2,0.1,0.2,0.2v1.1
				C37.4,22.8,37.3,22.9,37.2,22.9z"/>
			<path class="st3" d="M37.2,34.5L37.2,34.5c-0.1,0-0.2-0.1-0.2-0.2v-1.9c0-0.1,0.1-0.2,0.2-0.2l0,0c0.1,0,0.2,0.1,0.2,0.2v1.9
				C37.4,34.4,37.3,34.5,37.2,34.5z M37.2,30.6c-0.1,0-0.2-0.1-0.2-0.2v-1.9c0-0.1,0.1-0.2,0.2-0.2c0.1,0,0.2,0.1,0.2,0.2v1.9
				C37.4,30.5,37.3,30.6,37.2,30.6z M37.2,26.7c-0.1,0-0.2-0.1-0.2-0.2v-1.9c0-0.1,0.1-0.2,0.2-0.2c0.1,0,0.2,0.1,0.2,0.2v1.9
				C37.4,26.7,37.3,26.7,37.2,26.7z"/>
			<path class="st3" d="M37.2,37.5c-0.1,0-0.2-0.1-0.2-0.2v-1.1c0-0.1,0.1-0.2,0.2-0.2c0.1,0,0.2,0.1,0.2,0.2v1.1
				C37.4,37.4,37.3,37.5,37.2,37.5z"/>
		</g>
	</g>
	<g class="st7">
		<path class="st1" d="M146.5,73.8c0,2.5-1.5,4-3.9,4h-2.8v-7.9h2.8C145,69.8,146.5,71.2,146.5,73.8z M145.2,73.8
			c0-1.8-0.9-2.9-2.6-2.9h-1.5v5.7h1.5C144.2,76.6,145.2,75.6,145.2,73.8z"/>
		<path class="st1" d="M154.3,76.6v1.1h-5.9v-7.9h5.7v1.1h-4.4v2.3h3.5v1.1h-3.5v2.4H154.3z"/>
		<path class="st1" d="M159.6,77.7h-1.5l-2.9-7.9h1.4l1.8,5.3l0.5,1.6l0.5-1.6l1.8-5.3h1.4L159.6,77.7z"/>
		<path class="st1" d="M169.8,76.6v1.1h-5.9v-7.9h5.7v1.1h-4.4v2.3h3.5v1.1h-3.5v2.4H169.8z"/>
		<path class="st1" d="M177.2,76.6v1.1h-5.6v-7.9h1.3v6.8H177.2z"/>
		<path class="st1" d="M185.5,73.8c0,2.5-1.4,4.1-3.7,4.1c-2.3,0-3.7-1.6-3.7-4.1s1.4-4.1,3.7-4.1C184.1,69.7,185.5,71.3,185.5,73.8
			z M179.4,73.8c0,1.9,0.9,3,2.4,3c1.5,0,2.4-1.1,2.4-3c0-1.9-0.9-3-2.4-3C180.3,70.8,179.4,71.9,179.4,73.8z"/>
		<path class="st1" d="M193.3,72.3c0,1.5-1.1,2.5-2.8,2.5h-1.8v3h-1.3v-7.9h3C192.2,69.8,193.3,70.7,193.3,72.3z M191.9,72.3
			c0-0.9-0.5-1.4-1.7-1.4h-1.6v2.7h1.6C191.4,73.7,191.9,73.2,191.9,72.3z"/>
		<path class="st1" d="M200.9,76.6v1.1H195v-7.9h5.7v1.1h-4.4v2.3h3.5v1.1h-3.5v2.4H200.9z"/>
		<path class="st1" d="M205.6,74.6h-1.7v3.2h-1.3v-7.9h3.2c1.7,0,2.8,0.9,2.8,2.4c0,1.1-0.6,1.9-1.7,2.2l2.1,3.3h-1.5L205.6,74.6z
			 M203.9,73.5h1.8c1,0,1.5-0.4,1.5-1.3s-0.5-1.3-1.5-1.3h-1.8V73.5z"/>
		<path class="st1" d="M220.2,70.9h-2.7v6.8h-1.3v-6.8h-2.7v-1.1h6.7V70.9z"/>
		<path class="st1" d="M228.4,73.8c0,2.5-1.4,4.1-3.7,4.1c-2.3,0-3.7-1.6-3.7-4.1s1.4-4.1,3.7-4.1C227,69.7,228.4,71.3,228.4,73.8z
			 M222.3,73.8c0,1.9,0.9,3,2.4,3c1.5,0,2.4-1.1,2.4-3c0-1.9-0.9-3-2.4-3C223.2,70.8,222.3,71.9,222.3,73.8z"/>
		<path class="st1" d="M237.4,73.8c0,2.5-1.4,4.1-3.7,4.1c-2.3,0-3.7-1.6-3.7-4.1s1.4-4.1,3.7-4.1C235.9,69.7,237.4,71.3,237.4,73.8
			z M231.3,73.8c0,1.9,0.9,3,2.4,3c1.5,0,2.4-1.1,2.4-3c0-1.9-0.9-3-2.4-3C232.2,70.8,231.3,71.9,231.3,73.8z"/>
		<path class="st1" d="M244.9,76.6v1.1h-5.6v-7.9h1.3v6.8H244.9z"/>
		<path class="st1" d="M252.3,71.3l-1,0.9c-0.4-0.9-1.1-1.4-2.2-1.4s-1.7,0.5-1.7,1.2c0,0.6,0.5,1,2,1.2c2.1,0.4,2.9,1,2.9,2.3
			c0,1.4-1.3,2.3-3.2,2.3c-1.7,0-2.8-0.6-3.4-1.6l0.9-0.9c0.5,1,1.3,1.4,2.5,1.4c1.1,0,1.8-0.4,1.8-1.1c0-0.6-0.5-0.9-2-1.2
			c-2.2-0.4-3-1.1-3-2.3c0-1.3,1.2-2.4,3.1-2.4C250.6,69.7,251.7,70.2,252.3,71.3z"/>
		<path class="st1" d="M263.9,72.3c0,1.5-1.1,2.5-2.8,2.5h-1.8v3h-1.3v-7.9h3C262.8,69.8,263.9,70.7,263.9,72.3z M262.6,72.3
			c0-0.9-0.5-1.4-1.7-1.4h-1.6v2.7h1.6C262.1,73.7,262.6,73.2,262.6,72.3z"/>
		<path class="st1" d="M271.3,76.6v1.1h-5.6v-7.9h1.3v6.8H271.3z"/>
		<path class="st1" d="M277.3,75.7h-3.3l-0.8,2.1h-1.3l3-7.9h1.5l3,7.9H278L277.3,75.7z M276.9,74.6l-0.9-2.5l-0.4-1.1h0l-0.3,1.1
			l-0.9,2.6H276.9z"/>
		<path class="st1" d="M285.6,70.9h-2.7v6.8h-1.3v-6.8h-2.7v-1.1h6.7V70.9z"/>
		<path class="st1" d="M288.4,70.9v2.3h3.5v1.1h-3.5v3.4h-1.3v-7.9h5.7v1.1H288.4z"/>
		<path class="st1" d="M301.4,73.8c0,2.5-1.4,4.1-3.7,4.1c-2.3,0-3.7-1.6-3.7-4.1s1.4-4.1,3.7-4.1C299.9,69.7,301.4,71.3,301.4,73.8
			z M295.2,73.8c0,1.9,0.9,3,2.4,3c1.5,0,2.4-1.1,2.4-3c0-1.9-0.9-3-2.4-3C296.1,70.8,295.2,71.9,295.2,73.8z"/>
		<path class="st1" d="M306.3,74.6h-1.7v3.2h-1.3v-7.9h3.2c1.7,0,2.8,0.9,2.8,2.4c0,1.1-0.6,1.9-1.7,2.2l2.1,3.3h-1.5L306.3,74.6z
			 M304.6,73.5h1.8c1,0,1.5-0.4,1.5-1.3s-0.5-1.3-1.5-1.3h-1.8V73.5z"/>
		<path class="st1" d="M319.4,77.7h-1.2v-4.6l0.1-2.2h0l-2.4,6.8h-1.1l-2.4-6.8h0l0.1,2.2v4.6h-1.2v-7.9h1.9l1.6,4.6l0.6,1.9h0
			l0.6-1.9l1.6-4.6h1.9V77.7z"/>
	</g>
</g>
</svg>
