<svg xmlns="http://www.w3.org/2000/svg" viewBox="1447 1184.308 14.385 14.385"><defs><style>.a,.b{fill:#3aba00;}.b{fill-rule:evenodd;}</style></defs><g transform="translate(1447 1184.308)"><path class="a" d="M12.292,5.8A6.393,6.393,0,1,1,5.9,12.192,6.391,6.391,0,0,1,12.292,5.8m0-.8a7.192,7.192,0,1,0,7.192,7.192A7.183,7.183,0,0,0,12.292,5Z" transform="translate(-5.1 -5)"/><path class="b" d="M33.44,33.775h0l-4.267,4.363h0a.568.568,0,0,1-.4.16.6.6,0,0,1-.4-.16h0L25.96,35.677h0a.577.577,0,0,1,.4-.975.6.6,0,0,1,.4.16h0l2.014,2.062,3.884-3.964h0a.565.565,0,0,1,.959.416A.66.66,0,0,1,33.44,33.775Z" transform="translate(-22.491 -28.877)"/></g></svg>