<svg xmlns="http://www.w3.org/2000/svg" viewBox="23.8 1578.8 32.4 32.266"><defs><style>.a{fill:#343c46;stroke:#343c46;stroke-width:0.4px;opacity:0.397;}</style></defs><g transform="translate(0 1170)"><path class="a" d="M8.4,6.125a2.4,2.4,0,1,0,2.4,2.4A2.4,2.4,0,0,0,8.4,6.125Zm0,3.733A1.333,1.333,0,1,1,9.733,8.525,1.335,1.335,0,0,1,8.4,9.858Z" transform="translate(21.2 406.075)"/><ellipse class="a" cx="0.533" cy="0.533" rx="0.533" ry="0.533" transform="translate(50.133 413.267)"/><ellipse class="a" cx="0.533" cy="0.533" rx="0.533" ry="0.533" transform="translate(48 413.267)"/><ellipse class="a" cx="0.533" cy="0.533" rx="0.533" ry="0.533" transform="translate(51.2 414.867)"/><ellipse class="a" cx="0.533" cy="0.533" rx="0.533" ry="0.533" transform="translate(49.067 414.867)"/><ellipse class="a" cx="0.533" cy="0.533" rx="0.533" ry="0.533" transform="translate(45.867 413.267)"/><ellipse class="a" cx="0.533" cy="0.533" rx="0.533" ry="0.533" transform="translate(46.933 414.867)"/><ellipse class="a" cx="0.533" cy="0.533" rx="0.533" ry="0.533" transform="translate(43.733 413.267)"/><ellipse class="a" cx="0.533" cy="0.533" rx="0.533" ry="0.533" transform="translate(44.8 414.867)"/><ellipse class="a" cx="0.533" cy="0.533" rx="0.533" ry="0.533" transform="translate(41.6 413.267)"/><ellipse class="a" cx="0.533" cy="0.533" rx="0.533" ry="0.533" transform="translate(42.667 414.867)"/><path class="a" d="M8.4,25.125a2.4,2.4,0,1,0,2.4,2.4A2.4,2.4,0,0,0,8.4,25.125Zm0,3.733a1.333,1.333,0,1,1,1.333-1.333A1.335,1.335,0,0,1,8.4,28.858Z" transform="translate(21.2 397.208)"/><path class="a" d="M8.4,44.125a2.4,2.4,0,1,0,2.4,2.4A2.4,2.4,0,0,0,8.4,44.125Zm0,3.733a1.333,1.333,0,1,1,1.333-1.333A1.335,1.335,0,0,1,8.4,47.858Z" transform="translate(21.2 388.342)"/><path class="a" d="M32,8.867V2.583A2.46,2.46,0,0,0,29.542.125H2.458A2.46,2.46,0,0,0,0,2.583V8.867a2.443,2.443,0,0,0,.948,1.924A2.446,2.446,0,0,0,0,12.716V19a2.443,2.443,0,0,0,.948,1.924A2.446,2.446,0,0,0,0,22.849v6.284a2.46,2.46,0,0,0,2.458,2.458H17.324a25.489,25.489,0,0,0,4.542.4c4.625,0,9.5-1.2,10.077-3.495A.528.528,0,0,0,32,28.258v-14.8a.523.523,0,0,0-.051-.222,3.315,3.315,0,0,0-1.9-1.965A2.461,2.461,0,0,0,32,8.867ZM1.067,19V12.716a1.393,1.393,0,0,1,1.391-1.391H13.583a3.231,3.231,0,0,0-1.8,1.911.525.525,0,0,0-.051.222v6.933H2.458A1.393,1.393,0,0,1,1.067,19Zm12.067-3.273.074.046q.141.088.293.173l.087.048c.124.067.253.132.388.194l.066.029c.118.054.239.106.364.156l.11.044c.147.058.3.114.452.167l.026.009c.148.051.3.1.456.146l.126.037c.154.045.309.089.469.13l.038.01c.172.044.347.085.525.125l.135.029q.229.05.462.094l.093.018q.274.051.555.1l.134.021q.233.036.469.067l.13.017q.286.036.577.067l.117.011c.163.016.326.03.49.044l.148.012c.2.014.393.027.589.037l.084,0q.26.013.521.02l.157,0c.2,0,.4.007.6.007s.4,0,.6-.007l.157,0c.174,0,.347-.011.521-.02l.084,0c.2-.01.394-.023.589-.037l.148-.012c.164-.013.327-.028.49-.044l.117-.011q.29-.03.577-.067l.13-.017c.157-.021.314-.043.469-.067l.134-.021q.281-.045.555-.1l.093-.018q.234-.045.462-.094l.135-.029c.178-.04.354-.081.525-.125l.038-.01c.159-.041.315-.085.469-.13l.126-.037c.155-.047.308-.1.456-.146l.026-.009c.155-.054.306-.11.452-.167l.11-.044c.125-.051.246-.1.364-.156l.066-.029c.134-.062.263-.127.388-.194l.087-.048q.152-.084.293-.173l.074-.046q.166-.107.314-.221l.02-.014v2.66a.52.52,0,0,0-.011.188.616.616,0,0,1,.013.117.771.771,0,0,1-.031.178.925.925,0,0,1-.045.138,1.076,1.076,0,0,1-.062.121,1.377,1.377,0,0,1-.077.121,1.76,1.76,0,0,1-.14.166c-.02.021-.039.043-.061.064-1.129,1.092-4.461,2.079-8.651,2.079s-7.517-.986-8.649-2.077c-.023-.023-.045-.046-.066-.07a1.791,1.791,0,0,1-.135-.16,1.332,1.332,0,0,1-.081-.127,1.1,1.1,0,0,1-.059-.114.911.911,0,0,1-.047-.145.732.732,0,0,1-.031-.173.672.672,0,0,1,.011-.113.532.532,0,0,0-.011-.205V15.492l.02.014Q12.968,15.62,13.134,15.728Zm17.723,7.846a1.075,1.075,0,0,1-.062.121,1.376,1.376,0,0,1-.077.121,1.761,1.761,0,0,1-.14.166c-.02.021-.039.043-.061.064-1.129,1.092-4.461,2.079-8.651,2.079s-7.517-.986-8.649-2.077c-.023-.023-.045-.046-.066-.07a1.791,1.791,0,0,1-.135-.16,1.332,1.332,0,0,1-.081-.127,1.1,1.1,0,0,1-.059-.114.911.911,0,0,1-.047-.145.747.747,0,0,1-.027-.151v-.064c0-.024,0-.048.007-.072a.506.506,0,0,0-.007-.136l0-2.617v-.1c.021.017.046.032.069.048.067.05.138.1.21.148s.119.077.181.116c.1.059.191.117.294.173l0,0a13.839,13.839,0,0,0,4.333,1.309l.038.006c.546.085,1.106.151,1.675.2.121.01.242.021.364.029s.238.016.357.022q.242.014.483.023l.282.011c.26.007.519.013.778.013s.517,0,.776-.012l.284-.011q.24-.01.479-.023l.361-.023c.12-.009.238-.019.358-.029.575-.049,1.14-.116,1.691-.2l.025,0a12.991,12.991,0,0,0,4.63-1.482c.061-.038.122-.076.18-.115s.142-.1.209-.147c.024-.018.051-.034.075-.052v2.66a.52.52,0,0,0-.011.188.855.855,0,0,1,.011.117.771.771,0,0,1-.031.178A.928.928,0,0,1,30.857,23.574Zm-28.4,6.951a1.393,1.393,0,0,1-1.391-1.391V22.849a1.393,1.393,0,0,1,1.391-1.391h9.276v7.333h.158c.009.02.021.039.03.059.019.04.039.079.061.118a2.409,2.409,0,0,0,.148.234,2.706,2.706,0,0,0,.181.226c.033.037.066.074.1.111a4.24,4.24,0,0,0,.733.593l.03.019a6.687,6.687,0,0,0,.666.374H2.458Zm28.476-2.4c0,.017-.008.034-.011.05-.218,1.33-3.909,2.753-9.056,2.753a24.107,24.107,0,0,1-4.414-.386v0c-2.652-.5-4.12-1.349-4.531-2.064a0,0,0,0,1,0,0c-.019-.033-.032-.066-.046-.1a.91.91,0,0,1-.065-.2l0-3.075c.019.015.042.029.062.044.067.05.138.1.21.148s.119.077.181.116c.1.059.191.117.294.173l0,0a13.839,13.839,0,0,0,4.333,1.309l.038.006c.546.085,1.106.151,1.675.2.121.01.242.021.364.029s.238.016.357.022q.242.014.483.023l.282.011c.26.007.519.013.778.013s.517,0,.776-.012l.284-.011q.24-.01.479-.023l.361-.023c.12-.009.238-.019.358-.029.575-.049,1.14-.116,1.691-.2l.025,0a12.991,12.991,0,0,0,4.63-1.482c.061-.038.122-.076.18-.115s.142-.1.209-.147c.024-.018.051-.034.075-.052v3.028Zm0-14.463c0,1.353-3.878,2.867-9.067,2.867S12.8,15.011,12.8,13.658a.768.768,0,0,1,.036-.207.989.989,0,0,1,.093-.212l0-.01a2.882,2.882,0,0,1,1.086-.923l.071-.038q.142-.077.3-.152c.122-.057.247-.114.382-.169l.081-.033a13.848,13.848,0,0,1,2.207-.645c.263-.055.531-.108.806-.154l.219-.037a26.03,26.03,0,0,1,7.561,0l.222.037c.274.045.54.1.8.153C29.268,11.823,30.933,12.774,30.933,13.658Zm0-4.791a1.393,1.393,0,0,1-1.391,1.391H27.073c-.031-.007-.065-.011-.1-.018q-.525-.114-1.078-.2l-.107-.017a26.122,26.122,0,0,0-7.85,0l-.11.017c-.367.059-.726.126-1.075.2-.031.007-.067.011-.1.018H2.458a1.392,1.392,0,0,1-1.391-1.39V2.583A1.393,1.393,0,0,1,2.458,1.192H29.542a1.393,1.393,0,0,1,1.391,1.391Z" transform="translate(24 408.875)"/></g></svg>