<svg xmlns="http://www.w3.org/2000/svg" viewBox="22 1426.51 35 29.538"><defs><style>.a{fill:#343c46;opacity:0.397;}</style></defs><g transform="translate(0 1170)"><path class="a" d="M34.914,254.838a.812.812,0,0,0-1.089-.363l-15.332,7.666a2.231,2.231,0,0,1-1.984,0L1.176,254.475a.812.812,0,0,0-.726,1.453l15.333,7.666h0a3.863,3.863,0,0,0,3.436,0h0l15.333-7.666A.812.812,0,0,0,34.914,254.838Z" transform="translate(22 16.78)"/><path class="a" d="M33.927,47.7,19.222,40.35a3.863,3.863,0,0,0-3.436,0L1.08,47.7a1.948,1.948,0,0,0,0,3.485L15.786,58.54a3.863,3.863,0,0,0,3.436,0l14.7-7.352h0a1.948,1.948,0,0,0,0-3.485ZM33.2,49.735,18.5,57.087a2.231,2.231,0,0,1-1.984,0l-14.7-7.352a.324.324,0,0,1,0-.58l14.7-7.352a2.231,2.231,0,0,1,1.984,0l14.7,7.352a.324.324,0,0,1,0,.58Z" transform="translate(21.996 216.563)"/><path class="a" d="M244.934,167.013a.812.812,0,1,0,.812.812A.812.812,0,0,0,244.934,167.013Z" transform="translate(-205.434 98.183)"/><path class="a" d="M34.914,331.949a.812.812,0,0,0-1.089-.363l-15.333,7.666h0a2.231,2.231,0,0,1-1.983,0h0L1.176,331.586a.812.812,0,0,0-.726,1.453L15.782,340.7h0a3.862,3.862,0,0,0,3.435,0h0l15.333-7.666A.812.812,0,0,0,34.914,331.949Z" transform="translate(22 -55.06)"/><path class="a" d="M205.079,167.013a.812.812,0,1,0,.812.812A.812.812,0,0,0,205.079,167.013Z" transform="translate(-168.303 98.183)"/><path class="a" d="M284.789,167.013a.812.812,0,1,0,.812.812A.812.812,0,0,0,284.789,167.013Z" transform="translate(-242.565 98.183)"/></g></svg>