<svg xmlns="http://www.w3.org/2000/svg" viewBox="4083 950 31 31"><defs><style>.a{fill:#a9abaf;}</style></defs><g transform="translate(4053 57)"><path class="a" d="M114.369,68.383a3.61,3.61,0,0,0-3.282.729,3.9,3.9,0,0,0-1.459,3.1.912.912,0,0,0,1.824,0,1.98,1.98,0,0,1,.729-1.641A2.12,2.12,0,0,1,114,70.206a2.156,2.156,0,0,1,1.641,1.641,1.993,1.993,0,0,1-.729,2.188,5.438,5.438,0,0,0-2.188,4.376.861.861,0,0,0,.912.912c.547,0,.912-.365.729-.912a4.017,4.017,0,0,1,1.641-2.918,3.952,3.952,0,0,0,1.459-4.012,4.135,4.135,0,0,0-3.1-3.1Z" transform="translate(-68.14 831.911)"/><path class="a" d="M139.392,208.218a1.1,1.1,0,0,0-.182.729.67.67,0,0,0,.182.547,1.382,1.382,0,0,0,.729.365c.182,0,.547-.182.547-.365.182,0,.365-.365.365-.547a.947.947,0,0,0-.365-.729A.881.881,0,0,0,139.392,208.218Z" transform="translate(-94.622 706.847)"/><path class="a" d="M15.5,0A15.5,15.5,0,1,0,31,15.5,15.487,15.487,0,0,0,15.5,0Zm0,29.177A13.776,13.776,0,0,1,1.824,15.5,13.776,13.776,0,0,1,15.5,1.824,13.776,13.776,0,0,1,29.177,15.5,13.776,13.776,0,0,1,15.5,29.177Z" transform="translate(30 893)"/></g></svg>