<svg xmlns="http://www.w3.org/2000/svg" viewBox="1993.106 1181 11.394 20.492"><defs><style>.a{fill:#282d37;opacity:0.4;}</style></defs><g transform="translate(1353 1170.522)"><path class="a" d="M34.848,5H26.524A1.524,1.524,0,0,0,25,6.524V23.968a1.524,1.524,0,0,0,1.524,1.524h8.347a1.524,1.524,0,0,0,1.524-1.524V6.524A1.558,1.558,0,0,0,34.848,5ZM29.162,6.319h3.025a.182.182,0,0,1,0,.364H29.162A.179.179,0,0,1,28.98,6.5.2.2,0,0,1,29.162,6.319Zm1.524,18.4a.751.751,0,1,1,.751-.751A.757.757,0,0,1,30.686,24.719Zm4.935-2.274H25.751V8.025H35.6V22.444Z" transform="translate(615.106 5.478)"/></g></svg>