<svg xmlns="http://www.w3.org/2000/svg" viewBox="1898.172 9 43.719 24.483"><defs><style>.a{fill:#a9abaf;}</style></defs><g transform="translate(1369)"><path class="a" d="M24.92,51v.437a.437.437,0,0,1-.437.437H19.236a.437.437,0,0,1-.437-.437V51H0v.874a1.285,1.285,0,0,0,1.312,1.312h41.1a1.285,1.285,0,0,0,1.312-1.312V51Z" transform="translate(529.172 -19.703)"/><path class="a" d="M43.915,0h-30.6A1.311,1.311,0,0,0,12,1.312V19.673a1.311,1.311,0,0,0,1.312,1.312h30.6a1.312,1.312,0,0,0,1.312-1.312V1.312A1.311,1.311,0,0,0,43.915,0Zm-.437,19.236H13.749V1.749H43.478Z" transform="translate(522.418 9)"/></g></svg>