<svg xmlns="http://www.w3.org/2000/svg" viewBox="27 1261 28 34.968"><defs><style>.a{fill:#343c46;opacity:0.4;}</style></defs><g transform="translate(0 1170)"><path class="a" d="M67.67,85.4H51.414a2.766,2.766,0,0,0-2.764,2.764v23.324a2.766,2.766,0,0,0,2.764,2.764H67.67a2.766,2.766,0,0,0,2.764-2.764V88.164A2.775,2.775,0,0,0,67.67,85.4Zm.824,26.081a.831.831,0,0,1-.831.831H51.407a.831.831,0,0,1-.831-.831V88.164a.831.831,0,0,1,.831-.831H67.663a.831.831,0,0,1,.831.831Z" transform="translate(-21.65 11.716)"/><path class="a" d="M154.47,0H138.214a2.766,2.766,0,0,0-2.764,2.764.967.967,0,0,0,1.934,0,.831.831,0,0,1,.831-.831H154.47a.831.831,0,0,1,.831.831V26.088a.831.831,0,0,1-.831.831.967.967,0,1,0,0,1.934,2.766,2.766,0,0,0,2.764-2.764V2.764A2.766,2.766,0,0,0,154.47,0Z" transform="translate(-102.234 91)"/></g></svg>