<svg xmlns="http://www.w3.org/2000/svg" viewBox="1845 1176 37.149 30.875"><defs><style>.a{fill:#282d37;opacity:0.4;}</style></defs><g transform="translate(1353 1170)"><path class="a" d="M638.833,1097.5l-.533,4.982h6.4l-.533-4.982" transform="translate(-130.925 -1065.606)"/><path class="a" d="M101.6,1007.005a1,1,0,0,0,1,1h35.144a1,1,0,0,0,1-1V1005H101.6Zm18.574-1.22a.642.642,0,1,1-.642.642A.641.641,0,0,1,120.174,1005.785Z" transform="translate(390.4 -976.756)"/><path class="a" d="M138.749,229.5a1,1,0,0,0-1-1H102.6a1,1,0,0,0-1,1v20.668h37.149Zm-1.5,19.328H103.1V230.1h34.147Z" transform="translate(390.4 -222.5)"/></g></svg>