<svg xmlns="http://www.w3.org/2000/svg" viewBox="23.8 1661.8 32.4 32.4"><defs><style>.a{fill:#343c46;stroke:#343c46;stroke-width:0.4px;opacity:0.397;}</style></defs><g transform="translate(0 1170)"><path class="a" d="M21.3,13a8.3,8.3,0,1,0,8.3,8.3A8.305,8.305,0,0,0,21.3,13Zm0,15.407A7.111,7.111,0,1,1,28.407,21.3,7.119,7.119,0,0,1,21.3,28.407Z" transform="translate(18.704 486.704)"/><path class="a" d="M30.352,12.444h-1.2A13.506,13.506,0,0,0,27.817,9.21l.845-.845a1.649,1.649,0,0,0,0-2.331l-2.7-2.7a1.688,1.688,0,0,0-2.331,0l-.845.845a13.544,13.544,0,0,0-3.233-1.339v-1.2A1.649,1.649,0,0,0,17.908,0H14.092a1.649,1.649,0,0,0-1.647,1.647v1.2A13.536,13.536,0,0,0,9.21,4.182l-.845-.845a1.687,1.687,0,0,0-2.331,0l-2.7,2.7a1.649,1.649,0,0,0,0,2.331l.845.845a13.49,13.49,0,0,0-1.339,3.233h-1.2A1.649,1.649,0,0,0,0,14.092v3.816a1.649,1.649,0,0,0,1.647,1.648h1.2a13.536,13.536,0,0,0,1.339,3.234l-.845.845a1.649,1.649,0,0,0,0,2.331l2.7,2.7a1.687,1.687,0,0,0,2.331,0l.845-.845a13.56,13.56,0,0,0,3.234,1.339v1.2A1.649,1.649,0,0,0,14.092,32h3.816a1.649,1.649,0,0,0,1.647-1.647v-1.2a13.536,13.536,0,0,0,3.234-1.339l.845.845a1.687,1.687,0,0,0,2.331,0l2.7-2.7a1.649,1.649,0,0,0,0-2.331l-.845-.845a13.56,13.56,0,0,0,1.339-3.234h1.2A1.649,1.649,0,0,0,32,17.908V14.092A1.65,1.65,0,0,0,30.352,12.444Zm.462,5.464a.463.463,0,0,1-.462.462H28.223l-.107.458a12.376,12.376,0,0,1-1.548,3.74l-.249.4,1.5,1.5a.462.462,0,0,1,0,.654l-2.7,2.7a.462.462,0,0,1-.654,0l-1.5-1.5-.4.249a12.349,12.349,0,0,1-3.74,1.548l-.458.107v2.129a.463.463,0,0,1-.462.462H14.092a.463.463,0,0,1-.462-.462V28.223l-.458-.107a12.376,12.376,0,0,1-3.74-1.548l-.4-.249-1.5,1.5a.462.462,0,0,1-.654,0l-2.7-2.7a.462.462,0,0,1,0-.654l1.5-1.5-.249-.4a12.349,12.349,0,0,1-1.548-3.74l-.107-.458H1.647a.463.463,0,0,1-.462-.462V14.092a.463.463,0,0,1,.462-.462H3.776l.107-.458a12.364,12.364,0,0,1,1.548-3.74l.249-.4-1.5-1.5a.462.462,0,0,1,0-.654l2.7-2.7a.462.462,0,0,1,.654,0l1.5,1.5.4-.249a12.349,12.349,0,0,1,3.74-1.548l.458-.107V1.647a.463.463,0,0,1,.462-.462h3.816a.463.463,0,0,1,.463.462V3.776l.458.107a12.376,12.376,0,0,1,3.74,1.548l.4.249,1.5-1.5a.462.462,0,0,1,.654,0l2.7,2.7a.462.462,0,0,1,0,.654l-1.5,1.5.249.4a12.336,12.336,0,0,1,1.548,3.74l.107.458h2.129a.463.463,0,0,1,.462.462Z" transform="translate(24 492)"/><path class="a" d="M22.926,17a5.926,5.926,0,1,0,5.926,5.926A5.933,5.933,0,0,0,22.926,17Zm0,10.666a4.741,4.741,0,1,1,4.741-4.741A4.746,4.746,0,0,1,22.926,27.666Z" transform="translate(17.074 485.074)"/></g></svg>