<svg xmlns="http://www.w3.org/2000/svg" viewBox="25.6 1501.147 28.8 28.8"><defs><style>.a{fill:#343c46;stroke:#343c46;stroke-width:0.8px;opacity:0.397;}</style></defs><g transform="translate(0 1170)"><path class="a" d="M21.371,18.968l5.741-3.315L22.6,7.831l-5.742,3.315L20.169,5.4,12.347.888,9.032,6.629V0H0V23.484A4.521,4.521,0,0,0,4.516,28H28V18.968Zm.894-9.9,3.613,6.258-6.314,3.645H5.122ZM12.678,2.122l6.258,3.613-3.646,6.314L2.783,19.27ZM.9.9H8.129v7.29L.9,20.709ZM4.516,27.1A3.612,3.612,0,0,1,1.34,21.764l0,0,.079-.137a3.634,3.634,0,0,1,1.233-1.235l.186-.107a3.585,3.585,0,0,1,1.676-.415H27.1V27.1Z" transform="translate(26 331.547)"/><path class="a" d="M26.068,223.809a2.258,2.258,0,1,0,2.258,2.258A2.261,2.261,0,0,0,26.068,223.809Zm0,3.613a1.355,1.355,0,1,1,1.355-1.355A1.357,1.357,0,0,1,26.068,227.422Z" transform="translate(4.448 128.963)"/><rect class="a" width="15.355" height="0.903" transform="translate(35.935 356.385)"/><rect class="a" width="1.355" height="0.903" transform="translate(33.677 356.385)"/></g></svg>