<svg xmlns="http://www.w3.org/2000/svg" viewBox="1959.247 1179 18.16 23.217"><defs><style>.a{fill:#282d37;opacity:0.4;}</style></defs><g transform="translate(1353 1170.313)"><path class="a" d="M32.089,5H16.462A1.268,1.268,0,0,0,15.2,6.266V26.951a1.268,1.268,0,0,0,1.267,1.266H32.089a1.267,1.267,0,0,0,1.266-1.266V6.266A1.267,1.267,0,0,0,32.089,5Zm-7.814.724a.191.191,0,1,1-.191.19A.191.191,0,0,1,24.275,5.724Zm0,22.107a.476.476,0,1,1,.476-.476A.477.477,0,0,1,24.275,27.832Zm7.61-1.485a.046.046,0,0,1-.046.045H16.711a.046.046,0,0,1-.045-.045V6.636a.045.045,0,0,1,.045-.045H31.839a.045.045,0,0,1,.046.045Z" transform="translate(591.052 3.687)"/></g></svg>