<svg xmlns="http://www.w3.org/2000/svg" viewBox="1379 1344 28 27.136"><defs><style>.a{fill:#343c46;opacity:0.397;}</style></defs><path class="a" d="M25.775.433H2.227A2.247,2.247,0,0,0,0,2.7V25.311a2.242,2.242,0,0,0,2.227,2.258H25.775A2.242,2.242,0,0,0,28,25.311V2.7A2.246,2.246,0,0,0,25.775.433ZM3.638,2.057H24.366a1.978,1.978,0,0,1,1.96,1.991V8.526H1.677V4.048A1.975,1.975,0,0,1,3.638,2.057Zm6.014,8.721H26.326v5.972H9.652ZM1.677,23.956V10.779h5.8V25.946H3.638A1.973,1.973,0,0,1,1.677,23.956Zm22.689,1.992H9.652V19H26.326v4.955A1.976,1.976,0,0,1,24.366,25.947Z" transform="translate(1379 1343.567)"/></svg>